<svg xmlns="http://www.w3.org/2000/svg" xmlns:xlink="http://www.w3.org/1999/xlink" viewBox="619.99 711 3000 585.97">
  <defs>
    <style>
      .cls-1 {
        fill: #827b00;
        fill-rule: evenodd;
        filter: url(#filter);
      }
    </style>
    <filter id="filter" x="620" y="711" width="3000" height="585.97" filterUnits="userSpaceOnUse">
      <feFlood result="flood"/>
      <feComposite result="composite" operator="in" in2="SourceGraphic"/>
      <feBlend result="blend" in2="SourceGraphic"/>
    </filter>
  </defs>
  <path id="LSK2_1" data-name="LSK2 1" class="cls-1" d="M1394.27,711h17.79c0.44,61.419-28.25,108.3-59.33,139.519-11.96,12.017-30.82,22.932-38.56,38.591,18.86,4.009,79.95,34.116,86.03,47.5V1088c-22.5,5.86-38.8,24.44-56.37,35.62-19.89,12.66-39.4,20.03-59.33,32.65-12.96,8.22-35.59,30.8-47.46,29.69-15.41-10.69-29.79-27.7-47.47-35.62-23.85-10.69-117.68-20.74-130.52,5.93v35.63c17.4,22.51,21.8,41.82,50.43,53.43,41.71,16.92,159.03,1.41,189.86-14.84,24.88-13.12,34.69-47.9,50.43-56.4,3.18,2.23,2.8,1.78,8.9,2.96-7.35,100.58-179.73,157.24-269.96,92.03-109.246-78.96-3.97-217.19,65.27-261.23v-2.97c-3.37-1.01-83.07-50.463-83.07-50.463V832.708c35.82-20.287,71.87-42.233,106.8-65.307,11.27-7.447,38.72-32.564,50.43-35.622,8.2-2.141,43.93,25.8,53.4,29.685C1334.27,783.092,1388.18,757.341,1394.27,711Zm314.45,11.874h8.9c2.25,7.811,3.55,7.081,5.93,14.842-71.86,24.415-72.01,124.544-71.2,222.638h2.97c22.97-36.435,56.92-66.236,83.06-100.929,10.17-13.489,26.21-20.686,32.64-38.591-27.38.1-35.39-10.665-56.37-14.842q-8.895,11.873-17.8,23.748h-2.96v-2.969c-4.82-4.007-3.33-1.9-5.94-8.9,16.64-11.766,59.16-64.887,71.2-83.118,17.43,11.677,49.83,37.361,80.1,17.811,11.5-7.433,11.42-22.05,26.69-26.717v5.937c9.03,15.418-7.07,48.711-14.83,59.37-14.48,19.888-35.83,17.59-59.33,29.685-11.93,6.141-72.03,78.173-77.13,92.024,48.68,7.81,83.75,54.98,97.9,97.962q8.9,38.58,17.8,77.18c6.75,16.05,20.65,27.88,29.66,41.56h5.93c8.87-11.56,25.87-22.16,38.57-29.69v17.81c-27.93,17.67-65.07,64.8-97.9,71.25-17.4-22.47-34.93-32.07-47.46-62.34-27.74,16.53-52.59,55.3-86.03,62.34-24.62-25.36-95.87-50.2-145.36-29.69-25.32,10.5-34.24,39.7-65.26,41.56v-5.93c19.34-20.24,30.54-48.7,53.39-65.31,37.26-27.09,93.91-41.44,112.73-86.09,24.02-56.975-5.31-161.7,11.87-225.6C1654.15,767.049,1684.6,756.817,1708.72,722.874ZM691.2,981.133c-15.174-.254-30.374.684-41.532,2.969-2.852,5.242-3.729,4.988-5.933,11.874-2.85,4.2-2.9,9.714-2.966,17.814H628.9v-2.97h-2.967c-5.229-33.064-8.7-75.218,23.732-86.088,8.712-8,26.718-10.325,41.532-11.874-1.375-70.022,23.315-91,68.23-112.8v-2.969H744.594c-21.808,11.308-57.554-15.212-89-5.937-16.43,4.847-16.221,20.7-35.6,23.748,5.6-37.542,61.857-100.15,118.661-86.086,16.8,4.158,43.56,18.778,65.264,14.842,16.93-3.069,29.979-13.31,44.5-17.811v14.843c-27.307,18.537-66.484,48.482-77.13,83.118q-1.484,32.651-2.966,65.307c0,88.438,9.5,176.27-41.532,213.73-12.6,9.25-45.882,39.38-71.2,23.75C698.137,1111.88,692.139,1039.24,691.2,981.133ZM937.419,728.811c2.23,3.185,1.784,2.807,2.967,8.9-88,23.619-71.2,112.039-71.2,219.669v62.335c-8.126,30.17-36.86,60.98-62.3,74.22v2.96h8.9c12.747-8.42,43.6-.12,56.364,2.97,16.431,3.98,26.636,1.01,41.532,5.94q34.111,13.35,68.23,26.72c3.652-5.35,7.69-7.37,11.866-11.88,5.2,1.87,2.882.58,5.933,2.97,5.424,4.66,4.144,2.62,5.934,11.88-20.47,10.02-70.8,44.63-83.064,62.33-107.955-52.52-187.313-41.91-281.82,14.85V1200.8c25.973-26.96,41.079-56.73,74.163-77.18,25.789-15.94,58.886-15.01,71.2-44.53,8.138-19.5,5.931-47.64,5.933-74.21,0-68.947-9.5-160.477,17.8-204.825,14.5-23.551,44.28-45.419,71.2-56.4C898.263,736.632,922.523,738.733,937.419,728.811Zm596.271,237.48c-16.87-.11-25.81,3.012-38.56,5.937-2.85,5.242-3.73,4.988-5.94,11.874-2.85,4.208-2.89,9.717-2.96,17.808h-11.87v-2.966h-2.96c-4.26-33.045-7.89-68.613,17.79-86.086,11.77-8,36.68-5.884,44.5-17.811,5.43-9.02,1.83-24.71,5.94-35.622,9-23.948,33.1-46.246,53.39-59.37v-2.969h-8.9c-19.79,12.5-52.78-5.3-68.23-8.9-15.05-3.513-25.12,3.716-35.6,5.937-5.69,10.949-7.48,19.151-23.73,20.779V808.96c25.34-25.388,34.78-62.458,71.2-77.181,30.21-12.212,60.99,6.44,83.06,11.874,27.4,6.745,45.35-7.484,62.3-11.874v8.906c-58.58,31.048-62.3,104.758-62.3,195.921,0,27.593,5.37,66.654-2.96,89.054-8.86,23.8-27.57,37.15-47.47,50.47-17.19,11.5-30.55,23.02-59.33,23.74v-2.97h2.97C1537.08,1061.89,1534.31,1034.35,1533.69,966.291ZM2601.64,850.519v-103.9h5.94c10.99,16.33,28.84,26.762,44.5,38.59,33.86,25.58,61.07,63.463,94.92,89.055,19.61,14.824,45.24,30.448,59.34,50.465,7.04-4.393,15.79-11.207,20.76-17.811h2.97v2.968c5.95,4.146,6.13,4,8.9,11.874H2836q-10.38,8.905-20.76,17.811V1105.81c-2.39,3.03-1.06.81-2.97,5.94-24.45,6.34-74.66,39.01-97.9,53.43-7.08,4.4-26.22,23.42-32.63,17.81-7.31-3.52-81.42-50.92-83.06-53.43V942.543c17.18-7.725,60.6-30.942,71.19-44.528-18.91-12.192-38.23-31.108-53.39-47.5h-14.84Zm-130.52-97.96c20.82,9.839,34.13,37.983,50.43,53.433-1.87,5.207-.57,2.884-2.97,5.937-12.96,19.381-37.13,28.67-50.43,47.5h-2.97v-2.969c-14.72-13.607-40.48-36.754-47.46-56.4C2435.08,788.876,2458.69,768.95,2471.12,752.559Zm477.61,0c20.83,9.839,34.13,37.983,50.43,53.433-1.87,5.207-.57,2.884-2.97,5.937-12.96,19.381-37.12,28.67-50.43,47.5h-2.96v-2.969c-14.73-13.607-40.49-36.754-47.47-56.4C2912.69,788.876,2936.3,768.95,2948.73,752.559Zm-1794.75,47.5c-13.2,19.746-6.41,76.3-5.94,106.866,11,6.965,18.97,16.3,32.63,20.779V808.96c-8.42-2.123-10.35-3.214-14.83-8.905h-11.86Zm44.49,20.779V942.543a53.349,53.349,0,0,1,11.87,8.9c18.58-6.324,24.87-22.285,38.57-32.653,35.98-27.239,68.83-68.534,103.82-92.024V823.8h-5.93C1310.33,859.243,1237.1,831.461,1198.47,820.834Zm1115.42,8.906v68.275h68.23v5.937c-27.38,19.023-15.72,27.65-68.23,26.717V1117.68c11.99,8.18,15.7,20.34,32.63,23.75,5.08-4.98,10.96-7.92,14.84-5.93q2.955,1.47,5.93,2.96v5.94c-22.31,12.19-58.95,23.85-77.13,41.56-20.58-7.66-50.08-55.37-68.23-50.46-7.31,2.16-10.37,4.27-14.83,8.9-5.21-1.87-2.89-.57-5.94-2.97-4.81-4.01-3.32-1.9-5.93-8.9,9.2-4.2,34.44-15.07,38.56-23.75V954.417c-3.74-4.033-4.05-5.249-5.93-11.874-9.49-2.782-10.37-5.163-23.73-5.937V927.7C2233.94,907.638,2279,834,2313.89,829.74ZM2064.7,880.2h11.87c14.14,19.463,72.48,47.6,80.09,62.339V1108.78c-19.52,5.01-114.28,63.27-127.56,77.18-34.82-11.01-54.57-47.67-88.99-59.37-5.39,7.31-14.28,14.61-23.73,17.81v-2.97c-4.51-3.03-5.84-4.44-8.9-8.9q14.82-11.88,29.66-23.75V954.417C1954.72,949.274,2055.62,891.865,2064.7,880.2Zm394.55,2.969h8.9c7.7,21.353,33.39,31.518,41.53,50.464V1117.68c10.18,6.93,10.21,13.05,26.7,14.85,4.73-6.75,15.81-14.41,20.77-11.88a53.631,53.631,0,0,1,11.86,8.91h-2.96c-8.18,10.78-80.11,58.75-83.07,56.4-22.83-11.81-34.76-38.57-59.33-47.5-4.67,6.24-9.36,9.23-17.8,11.88-2.85-5.24-3.73-4.99-5.93-11.88,8.41-4.04,31.81-15.74,35.6-23.74V957.385h-2.97c-3.48-10.418-9.88-14.377-14.83-23.748-10.52,3.64-17.94,12.5-26.7,8.906-4.82-4.007-3.33-1.9-5.93-8.906C2407.23,923.116,2444.72,902.228,2459.25,883.173Zm477.61,0h8.9c7.7,21.353,33.39,31.518,41.53,50.464V1117.68c10.18,6.93,10.22,13.05,26.7,14.85,4.74-6.75,15.81-14.41,20.77-11.88,6.2,3.33,5.43,4.26,14.83,5.94,3.15-4.47,12.94-8.16,14.83-11.87v-160.3c52.68-13.057,91.04-61.74,145.36-71.244,15.6,31.694,50.02,57.155,56.37,94.992-34.03,9.791-66.73,40.845-94.93,59.365-7.82,5.14-28.53,9.84-32.63,17.82v23.74c11.21,7.21,69.96,51.13,74.16,47.5,22.68-13.45,39.55-38.45,65.26-47.5v2.97c2.59,2.2,3.35,3.74,5.94,5.94-1.87,5.21-.57,2.88-2.97,5.94-9.82,13.89-105.93,92.37-121.63,97.96-20.3-28.13-62.01-37.94-83.06-65.31-7.47,3.95-25.17,22.79-29.67,17.81-5.43-3.81-5.07-5.84-11.86-8.9-6.9,10-71.51,52.5-74.16,50.46-22.84-11.81-34.77-38.57-59.34-47.5-4.67,6.24-9.36,9.23-17.79,11.88-2.86-5.24-3.73-4.99-5.94-11.88,8.41-4.04,31.82-15.74,35.6-23.74V957.385h-2.97c-3.48-10.418-9.88-14.377-14.83-23.748-10.52,3.64-17.94,12.5-26.7,8.906-4.81-4.007-3.32-1.9-5.93-8.906C2884.84,923.116,2922.33,902.228,2936.86,883.173Zm439.05,0c16.76,10.937,36.53,33.8,47.46,50.464h2.97v-2.968c11.86-6.244,60.46-48.863,65.26-44.528,23.29,15.156,40.58,44.239,68.23,53.433a46.358,46.358,0,0,1,23.74-17.811c3.32,6.208,4.25,5.438,5.93,14.843q-13.35,10.389-26.7,20.779V1111.75c11.07,7.54,13.82,17.59,29.67,20.78,5.8-6.19,12.78-10.79,20.76-14.85,2.66,8.33,9.02,13.05,5.94,17.82-8.04,10.45-82.69,58.97-86.03,56.4-13.16-8.24-51.22-39.4-56.37-53.44,30.81-19.99,18.61-116.97,17.8-166.232-16.53-10-26.18-28.361-47.46-32.654-4.72,6.551-17.76,11.227-20.77,17.811V1120.65c9.49,5.95,19.8,15.17,23.73,26.72-17.5,10.78-42.05,30.55-53.39,47.5h-2.97v-2.97c-14.06-6.88-59.17-40.36-65.26-53.44,34.63-22.18,21.68-122.84,20.76-178.106-10.14-6.956-13.19-17.233-26.7-20.78-5.4,5.332-12.63,9.337-20.76,11.874-2.1-6.967-3.04-6.631-5.94-11.874C3316.29,927.989,3362.47,900.719,3375.91,883.173Zm-700.1,23.748V1096.9q31.14,20.79,62.3,41.56V960.354C2714.98,945.266,2699.19,921.905,2675.81,906.921Zm-661.54,17.811V1096.9c26.43,8.25,42,32.67,68.23,41.56v-169.2Zm1124.32,112.8c17.97-2.73,56.67-25.77,62.29-41.554-22.05-16.2-28.48-56.2-53.39-68.276v2.969q-4.455,1.484-8.9,2.968V1037.53ZM1248.91,942.543c-10.79,16.007-29.12,26.961-44.5,38.59q-11.865,13.357-23.74,26.717c-30.27,22.89-62.08,48.23-83.06,80.15h2.97c42.59-41.7,124.33-9.33,169.09,2.97V951.448C1260.88,949.329,1256.08,946.022,1248.91,942.543Zm38.56,20.779V1102.84c11.56,7.11,14.06,13.75,32.63,14.84,11.86-35.53,3.22-97.81,2.97-139.515C1311.69,972.952,1300.7,966.829,1287.47,963.322Zm370.82,8.906c-5.44,10.17-6.28,23.831-5.94,41.562-6.34,10.32-3.82,27.2-8.9,38.59-6.87,15.42-23.47,24.98-32.63,38.59,41.49-.73,73.69,3.61,100.86,17.81,11.97,6.25,14.79,15.36,32.64,17.81q5.925-7.425,11.86-14.84c-8.81-12.26-6.8-30.98-11.86-47.5C1731.8,1023.39,1708.95,974.2,1658.29,972.228Z"/>
</svg>