<svg xmlns="http://www.w3.org/2000/svg" xmlns:xlink="http://www.w3.org/1999/xlink" viewBox="1013 712 3000 624">
  <defs>
    <style>
      .cls-1 {
        fill: #fff;
        fill-rule: evenodd;
        filter: url(#filter);
      }
    </style>
    <filter id="filter" x="1013" y="712" width="3000" height="624" filterUnits="userSpaceOnUse">
      <feFlood result="flood"/>
      <feComposite result="composite" operator="in" in2="SourceGraphic"/>
      <feBlend result="blend" in2="SourceGraphic"/>
    </filter>
  </defs>
  <path id="textsous_1" data-name="textsous 1" class="cls-1" d="M1803.86,712c1.48,63.947-26.44,98.761-53.29,134.323q-3.915,3.554-7.82,7.108c-6.35,6.344-11.93,13-19.19,18.478l-6.39,7.107c-4.2,3.174-9.16,6.263-12.08,10.661,6.51,0.686,11.93,4.189,17.05,6.4a306.4,306.4,0,0,1,51.16,27.717c3.42,2.293,18.62,11.59,19.9,14.215V1086.54c-6.65,3.22-12.44,8.27-18.48,12.08-7.37,4.66-14.63,8.13-22.02,12.8-4.3,2.71-8.09,6.93-13.5,8.53v-1.43c1.66-2.58-.57-7.53-1.43-9.95-4.8-13.64-10-13.73-22.73-9.24v-120.1c-4.34-1.051-7.81-3.829-11.37-5.686l-22.74-10.661V1105.02c3.37,1.03,5.52,3.42,8.53,4.98v1.42h-1.42c-2.51,1.94-8.07,2.7-12.08,2.84-1.67,2.2-5.84,7.21-7.82,9.24-0.38,3.8-1.39,7.83.71,10.66,3.38,11.25,14.67,5.46,14.92,15.63-1.06,1.65-1.45,5.38-2.13,7.11a21.87,21.87,0,0,0-6.39,4.27c-3.66-1.39-5.54-5.02-9.24-6.4-5.54-2.06-24.79-1.7-29.14,1.42-6.18,2.02-8.34,8.45-9.94,14.93-0.64,2.55.33,5.38-.71,7.1,0.36-15.93-1.64-16.83-11.37-22.74-2.51-1.52-8.41-4.98-12.79-4.26-5.62.91-7.44,4.91-12.79,5.68-5.57-5.67-16.03-7.67-24.16-10.66-24.79-9.1-67.95-9.56-93.8,0-4.4,1.63-8.77,5.5-12.79,7.11-4.36,1.75-8.4,1.34-12.08,3.55-3.98,2.4-7.52,5.99-11.37,8.53v-2.13c1.41-2.38.6-6.19,1.43-9.24q2.835-10.3,5.68-20.61c8.21-19.89,19.92-36.51,31.98-52.59a212.487,212.487,0,0,1,15.63-17.77q3.9-3.555,7.81-7.11c5.49-7.25,12.13-12.84,18.48-19.19q3.9-4.26,7.82-8.53c4.31-3.26,21.19-17.04,22.73-21.32-5.02-2.4-9.02-6.4-13.5-9.236-15.94-10.112-31.45-20.247-46.89-30.56-4.21-2.807-20.33-10.554-22.03-14.215V834.952a2.585,2.585,0,0,0,.71-1.421c9.1-2.315,24.53-15.437,32.68-20.611,28.29-17.952,56.56-35.574,84.56-53.3,11.03-6.98,21.96-13.824,32.69-20.61,3.83-2.426,8.66-3.611,11.37-7.107,5.94,3.006,10.29,9.028,15.63,12.792a172.161,172.161,0,0,0,31.26,17.057c6.7,2.825,14.43,4.535,21.32,6.4,37.33,10.085,72.04-9.173,85.27-30.561,4.37-7.065,5.99-16.07,7.81-25.585h16.35Zm301.28,11.371c4.67,2.307,6.35,9.257,9.94,12.793a2.351,2.351,0,0,1-.71,1.421c-5.21,5.394-12.46,9.677-18.47,14.215-13.92,10.5-32.39,35.518-39.79,52.592-4.28,9.869-5.92,21.046-8.53,32.692-1.28,5.717-.29,12.542-1.42,17.768v29.139c-2.08,9.624,1.56,22.892-.71,33.4-2.69,12.471-1.38,32.808-1.42,46.2h0.71c6.01-9.211,15.48-16.2,22.03-24.875,20.6-27.33,45.47-50.848,66.08-78.177,6.68-8.867,15.2-16.533,22.03-25.586,2.73-3.629,7.53-5.98,9.23-10.66a103.22,103.22,0,0,1-43.34-12.082c-2.22-1.171-10.64-5.7-11.37-4.975-5.26,3.476-18.39,18.653-22.03,24.164h-0.71v-0.711c-2.76-1.749-6.67-5.217-7.81-8.529,3.88-2.782,6.35-7.536,9.23-11.371,5.68-7.547,12.66-14.3,18.48-22.032,10.32-13.733,22.96-25.865,33.39-39.8,3.35-4.467,8.22-8.039,11.37-12.793h0.71v0.711c3.14,2.076,4.91,5.657,7.82,7.817,11.88,8.838,34.61,21.281,56.84,14.215a65.908,65.908,0,0,0,13.51-5.686c6.28-3.881,12.49-10.754,16.34-17.057q1.77-4.618,3.55-9.239h7.82v1.421c2.43,3.807,1.73,14.564.71,19.189q-0.36,4.976-.71,9.95c-3,10.82-6.99,21.584-12.79,29.85-9.12,13-23.45,24.191-39.08,30.56l-17.77,4.975-6.39.711c-3.56,1.956-14.7,17.249-17.77,21.321-11.03,14.648-25.07,27.121-36.24,41.932q-2.475,2.132-4.97,4.264c-5.06,6.711-10.76,15.962-17.76,20.61v0.711c11.19,2.511,21.24,8.185,29.84,13.5,35.78,22.124,55.39,48.042,69.64,91.677,3.83,11.75,4.35,23.28,7.81,35.54,6.35,22.52,12.89,42.15,24.16,58.99,4.5,6.72,10.32,17.15,18.48,19.9,3.17-4.49,10.3-9.08,14.92-12.08v1.42c-5.8,5.02-.57,16.13-2.13,18.48-3.97,5.53-11.56,9.43-17.06,13.5-2.57,1.9-4.91,5.66-7.81,7.11-2.08,1.03-3.33.24-4.98,1.42-1.18,1.66-2.37,3.31-3.55,4.97a63.664,63.664,0,0,1-15.63,12.08c-0.05-14.54-5.74-17.42-14.21-23.45,30.11-1.54,31.18-46.6,2.13-53.3-18.52-4.27-39.94,23.77-34.11,39.09,3.83,10.06,10.65,8.89,18.47,14.21-6.79.77-14.32,3.6-21.31,4.26-1.48-2.12-4.14-2.4-5.69-4.26-6.22-7.47-9.55-19.01-13.5-28.43-6.87,4-12.04,10.67-18.47,14.93-3.57,2.36-8.23,2.36-11.37,4.97q-1.785,2.49-3.55,4.98c-6.08,4.16-9.72,1.76-16.35,4.26-3.77,1.43-5.22,5.46-8.52,7.11-10.13-15.66-42.13-14.78-60.4-7.82-5,1.91-8.6,6.72-13.5,8.53-4.68-3.64-12.12-3.8-18.48-5.69-15.89-4.71-38.03-6.8-57.55-2.84-7.08,1.44-12.89-6.21-21.32-3.55-2.85.9-4.27,3.55-6.39,4.97-4.69,3.13-10.07,4.11-14.93,7.11-3.56,2.2-6.35,5.44-11.37,6.4-2.78-3.73-6.39-5.55-9.94-8.53q8.88-9.6,17.76-19.19a201.843,201.843,0,0,1,30.55-23.46c9.44-5.94,19.54-8.77,29.85-14.21,4.92-2.6,9.69-7.48,14.21-10.66,20.2-14.2,40.36-29.11,50.45-53.3,5.08-12.18,5.68-30.31,5.68-46.91V969.986c2.15-9.845-1.62-23.385.71-34.114,2.1-9.618-1.58-22.9.72-33.4,1.62-7.431.69-18.353,0.71-27.007,0.03-18.127-.05-39.228,4.26-54.724,9.56-34.387,27.18-57.12,49.03-78.888C2088.29,735.976,2100.75,729.479,2105.14,723.371ZM1085.48,981.358c-9.38-.178-22.5-1.747-30.56.71-12.52,3.819-23.46,15.973-19.89,33.4h-11.37a111.935,111.935,0,0,1-6.4-18.477c-2.23-8.562-1.92-21.069,0-29.139,8.35-34.958,25.85-52.16,68.22-52.592-0.14-20.262-1.14-42.212,4.97-56.857,9.36-22.434,27.35-33.886,46.9-46.195,6.64-4.184,12.69-9.9,19.89-13.5V798h-2.13c-5.43,3.534-17.99,2.157-26.29,2.133-15.3-.045-31.07-3.1-44.76-6.4-5.66-1.363-15.32-3.738-22.74-2.132-10.57,2.287-18.43,4.582-25.58,9.95-2.64,1.976-8.49,13.779-9.24,14.214H1013c1.65-11.1,13.42-25.214,19.19-33.4,13.88-19.732,30.35-37.8,54-47.617,7.39-3.07,16.23-3.211,24.87-4.975,6.66-1.361,16.94,1.492,22.03,2.842,13.67,3.627,26.21,6.563,39.08,9.95,20.98,5.525,46.02-.076,59.68-8.528,3.78-2.334,6.97-6.087,10.66-8.529v9.95c-0.71,1.157-.68,4.539-1.42,5.686-1.72,4.807-7.29,8.007-10.66,11.371-10.5,10.509-21.04,18.842-33.39,27.718-14.46,10.386-23.81,25.882-29.85,44.774-5.89,18.429-4.97,42.428-4.97,66.1v100.21c0,20.032.98,40.5-3.55,56.852-8.52,30.76-24.79,51.09-49.03,66.1-16.46,10.19-32.03,15.69-59.69,15.64v-0.72h0.71c2.02-1.95,4.75-2.58,7.11-4.26,7.24-5.19,15.44-14.98,19.18-23.45C1090.25,1071.33,1085.41,1023.38,1085.48,981.358Zm841.3-12.793c-33.23-.592-49.62,3.379-49.02,34.825h-11.37c-2.07-7.889-5.15-16.113-7.11-24.875-2.33-10.4.63-24.423,2.84-31.271,9.19-28.468,27.79-44.214,65.38-44.064-0.6-45.151,17.93-69.75,43.34-88.838,6.56-4.928,14.99-16.475,22.74-19.189v-0.711c-4.16,1.124-8.04,3.673-12.08,4.975-11.2,3.606-28.35,3.914-40.5.711-10.54-2.779-35.67-12.878-49.03-9.95-10.46,2.29-19.59,5.469-24.87,12.792-7.49,10.377.92,12.863-18.48,12.793,1.4-9.4,12.22-21.9,17.06-29.139,14.03-21,30.66-42.539,55.42-52.592,6.18-2.508,13.58-2.794,20.61-4.264,6.37-1.334,15.24,1.544,19.89,2.842,14.46,4.035,26.67,8.27,40.5,12.082,26.58,7.324,48.18-4.873,63.96-12.792v3.553c-0.75,1.1-.74,2.9-0.72,4.975-25.83,17.144-46.44,49.726-56.84,82.442-3.41,10.739-2.43,23.06-4.97,34.825v49.038c0,61.872,7.38,118.837-24.16,150.667-16.6,16.75-36.26,28.26-59.69,38.38-4.04,1.75-20.81,8.26-28.42,3.55h1.42c8.07-7.8,16.29-10.89,22.74-21.32C1930.58,1053.5,1926.72,1008.1,1926.78,968.565Zm-739.69,165.6c-0.03,9.35-1.44,21.5-4.27,29.14-40.1,3.54-71.28,9.72-100.9,22.74-16.56,7.29-30.19,19.03-45.47,27.01v-11.37c6.24-6.5,12.08-19.32,17.76-27.01,12.88-17.41,33.99-35.2,52.58-46.91,11.59-7.29,25.25-13.14,38.37-18.48,5.89-2.39,12.69-1.94,18.48-4.97,4.85-2.54,13.9-19.74,16.34-25.59,7.96-19.07,7.82-45.06,7.82-71.78V905.312c0-21.721-1.17-45.985,3.55-63.963,19.24-73.23,68.21-94.262,144.25-110.16V738.3c-5.24,1.328-9.14,4.488-13.5,6.4-25.28,11.052-44.46,25.264-53.3,52.593-5.55,17.165-4.26,40.82-4.26,63.253V968.565c0,25.246.47,50.005-7.11,67.515-7.34,16.97-22.2,32.76-36.23,43.36-3.96,2.98-7.59,9.21-12.08,11.37q-6.045,1.065-12.08,2.13c-17.14,7.01-21.62,13.68-20.61,34.82a67.283,67.283,0,0,1,7.82,6.4h2.84ZM2991.92,852.009V746.825h1.42c3.51,5.082,9.98,9.062,14.92,12.792,12.47,9.412,22.89,21.723,35.53,31.271,8.11,6.125,14.63,15.193,22.74,21.322,23.26,17.58,42.81,39.295,66.08,56.856,5.86,4.424,10.48,11.209,16.34,15.636,10.64,8.033,19.39,18.393,29.85,26.3,5.67,4.29,13.12,8.979,17.05,14.925,4.14-2.057,19.58-14.237,22.03-17.768h0.71v0.711c3.41,2.365,8.54,8.647,9.95,12.792h-0.71c-3.32,4.23-14.58,12.911-19.19,16.347-1.2.895-4.24,1.674-4.97,2.842V1049.59c-1.95,3.11-.71,11.82-0.71,16.34v41.22a69.415,69.415,0,0,1-12.08,5.69c-4.41,1.36-8.82.53-12.08,2.84-4.4,3.11-3.49,8.1-6.4,12.08-0.94,1.3-16.06,9.89-18.47,11.37-9.7,5.96-25.15,11.39-32.69,19.19-3.26-1.1-4.89-3.87-7.81-4.97-10.18-3.85-33.65,1.75-39.08,7.11-3.19,3.14-11.2,15.45-14.22,17.05-4.67-5.78-13.61-9.31-19.89-13.5-10.97-7.31-21.74-16.1-32.69-23.45-2.72-1.83-19.1-11.3-19.89-12.8V945.822c18.09-10.175,35.99-22.085,53.29-33.4,4.37-2.862,16.66-7.637,18.47-12.082-4.65-3.077-7.77-8.114-12.08-11.371a320.5,320.5,0,0,1-27-23.453c-4.95-4.71-10.77-14.3-19.18-14.925C2999.12,851.974,2995.23,852.037,2991.92,852.009Zm-127.9-98.077h2.13c8.11,13.787,22.48,23.674,31.98,36.246,4.59,6.075,11.64,16.476,17.76,20.61V811.5h-0.71c-10.62,11.258-23.84,21.912-36.24,31.271-6.68,5.038-12.29,14.791-20.61,17.768-2.42-6.869-10.76-11.551-14.92-17.057-10.69-14.148-25.02-25.855-34.82-40.511,11.98-7.675,20.78-19.961,31.98-28.428C2847.58,769.244,2859.3,761.086,2864.02,753.932Zm475.37,0h2.13c8.11,13.787,22.47,23.674,31.97,36.246,4.59,6.075,11.65,16.476,17.77,20.61V811.5h-0.71c-10.62,11.258-23.84,21.912-36.24,31.271-6.68,5.038-12.29,14.791-20.61,17.768-2.42-6.869-10.76-11.551-14.92-17.057-10.69-14.148-25.03-25.855-34.82-40.511,11.97-7.675,20.77-19.961,31.98-28.428C3322.95,769.244,3334.67,761.086,3339.39,753.932Zm-1787.07,46.2c-1.71,1.584-9.11,3.767-9.95,4.975V910.287c12.48,3.893,20.27,17.116,32.69,21.321V813.631C1567.82,809.531,1560.51,802.516,1552.32,800.128Zm39.08,22.031V943.69c4.58,2.226,11.91,6.675,14.92,10.661h0.71V953.64c3.26-1.677,4.46-4.391,7.11-6.4,9.41-7.119,17.04-16.458,26.29-23.454,10.02-7.574,18.4-16.593,28.42-24.164q2.49-2.842,4.97-5.685c14.17-10.705,27.27-23.039,40.51-34.825q7.1-7.461,14.21-14.925l8.52-7.817c3.17-4.2,6.33-9.824,10.66-12.793V822.87h-1.42c-17.53,17.88-76.7,24.055-109.43,14.925q-14.2-4.264-28.42-8.528C1603.03,827.042,1597.55,823.659,1591.4,822.159Zm1114.16,9.95v68.228h69.64v0.711c-5.06,4.85-9.25,10.681-13.5,16.346-2.11,2.8-5.72,5.033-7.82,7.818-1.45,1.918-3.61,6.832-5.68,7.818h-42.64v183.36c7.51,5.03,21.65,25.45,29.14,27.01,4.72-4.3,12.62-5.37,17.05-9.95a2.447,2.447,0,0,1,1.42.71,28,28,0,0,1,7.82,10.66h-0.71c-4.39,4.36-10.42,4.77-16.35,7.82-2.03,1.04-4.39,3.75-6.39,4.97-4.11,2.51-8.51,3.46-12.79,5.69-3.08,1.6-9.15,6.76-12.08,5.68-3.15-1.27-4.22-4.91-7.11-6.39-1.66-.24-3.31-0.48-4.97-0.71-1.59-.76-2.85-3.37-4.26-4.27-2.66-1.68-10.5-4.26-13.51-4.97-9.38-2.22-29.79,8.2-36.94,4.26-10.52-3.74-18.66-21.23-29.85-23.45-2.86,3.53-17.15,12.17-22.03,13.5-1.44-4.41-5.48-7.55-7.81-11.37,9.65-4.71,18.14-12.17,27-17.77,2.4-1.51,11.57-5.33,12.79-7.1V959.326q-1.425-4.62-2.84-9.239c-4.52-7.583-13.32-12.883-25.58-12.793v-9.239q35.88-35.532,71.76-71.071,12.09-12.437,24.16-24.875h12.08Zm-243.01,48.328c6.94,2.187,12.29,9.477,17.76,13.5,15.45,11.372,30.12,23.735,45.48,34.824,6.41,4.627,12.33,9.62,18.47,14.214,0.99,0.739,3.66,1.186,4.27,2.133V1107.15c-22.21,12.46-43.96,27-65.37,40.51-9.96,6.29-22.25,5.78-29.14,16.35l-6.39-4.98c-1.66-.23-3.32-0.47-4.98-0.71-2.14-.99-3.97-4.06-6.39-4.97-9.27-3.49-29.75.89-36.24,4.97-3.06,1.93-6.09,6.53-8.53,9.24h-0.71v-0.71c-4.31-1.31-18.28-11.42-20.6-14.92,18.56-11.79,14.34-39.42-3.56-48.33-10.44-5.2-28.78,4.08-32.68,9.95-2.1,3.16-4.15,9.44-5.69,12.79h-0.71v-2.13c4.29-6.14,2.14-33.38,2.13-46.91V956.483c5.13-1.278,9.43-5.308,13.51-7.818,9.46-5.828,19.27-10.722,28.42-16.346,20.39-12.542,41.75-23.187,61.82-35.535C2442.15,891.412,2455.47,887.235,2462.55,880.437Zm392.94,2.843c5.1,3.392,8.42,9.338,12.08,14.214,5.88,7.825,13.18,14.728,19.19,22.743,3.48,4.649,12.73,11.435,14.92,16.346V1116.39c6.82,4.56,13.13,16.5,20.6,19.19,6.01-7.44,18.32-9.5,24.16-17.06h0.71v0.71c3.98,2.27,11.56,7.19,13.51,11.38h-0.72c-4.38,4.48-10.39,6.99-15.63,10.66q-17.58,12.33-35.53,24.87c-8.34,5.85-21.93,18.71-31.26,22.03,1.41-9.89,3.12-22.2-4.26-28.43-2.3-1.93-5.34-2.47-7.82-4.26,30.11-1.54,31.19-46.6,2.13-53.3-18.52-4.27-39.93,23.77-34.11,39.09,3.83,10.06,10.65,8.89,18.48,14.21-4.6.56-6.51,2.03-12.08,2.13-2.49-3.72-17.53-17.57-22.03-18.48-2.73,3.53-14.67,12.03-19.18,13.51-1.45-4.41-5.49-7.55-7.82-11.37q18.48-12.8,36.95-25.59V959.326c-4.98-3.55-16.22-19.247-19.9-24.875-7.85,3.669-14.57,11.743-23.44,13.5a40.207,40.207,0,0,0-7.82-10.66v-0.711c8.18-2.681,17.81-12.315,24.87-17.057,12.76-8.566,25.33-16.918,37.66-25.585C2844.44,890.221,2851.09,887.875,2855.49,883.28Zm475.37,0c5.09,3.392,8.41,9.338,12.08,14.214,5.88,7.825,13.18,14.728,19.18,22.743,3.49,4.649,12.74,11.435,14.93,16.346V1116.39c6.82,4.56,13.13,16.5,20.6,19.19,6-7.44,18.31-9.5,24.16-17.06h0.71v0.71c4.7,2.82,8.41,8.75,14.21,9.95,3.42-4.78,18.15-12.54,19.9-16.34V956.483c3.99-1,7.28-3.916,10.66-5.686,9.68-5.072,19.42-9.426,28.42-14.925,5.46-3.335,11.59-4.492,17.05-7.817,16.04-9.757,33.47-17.364,50.45-26.3,8.29-4.358,16.98-9.013,25.58-13.5,2.74-1.43,7.22-5.212,9.95-4.264,6.71,7.217,10.99,17.11,16.34,25.585,8.36,13.228,17.48,26.527,26.3,39.8,4.42,6.654,15.93,18.663,16.34,27.717-10.35,4.867-19.71,12.512-29.13,18.479-21.36,13.528-42.87,26.468-63.96,39.8-8.85,5.6-17.7,10.92-26.29,16.35-2.31,1.46-7.37,2.58-8.52,4.97v24.88c17.87,10.26,34.58,23.31,51.87,34.82,6.27,4.17,12.37,10.97,19.89,13.51q31.98-25.23,63.95-50.46h1.43c1.64,5.39,6.02,8.86,7.81,14.21h-0.71q-37.3,30.555-74.61,61.12c-3.62-.51-6.85-2.09-9.95-2.84-18.07-4.37-34.16,18.6-39.08,28.43-1.37,2.75-.56,6.77-2.13,9.23-4.5-5.7-12.5-9.21-18.47-13.5-14.05-10.09-27.69-21.06-41.93-31.27-6.14-4.41-16.37-15.68-24.16-17.06-2.26,3.34-21.72,19.28-25.58,20.61v-0.71c-3.41-3.36-5.95-10.28-11.37-11.37-1.9,2.61-4.43,3.1-7.1,4.98-5.19,3.63-10.32,8.65-15.63,12.08-2.19,1.41-4.51,1.01-7.11,2.13-6.86,2.96-15.25,9.56-19.18,15.64h-0.71v-0.71c-1.39-2.02-1.41-5.14-2.85-7.11-2.6-3.59-6.24-2.92-10.66-4.98-2.14-.99-3.96-4.06-6.39-4.97-7.47-2.81-20.38-1.05-27.71,1.42-3.83,1.29-7.59,4.35-11.37,5.69-3.77-5.52-15.14-10.36-15.63-17.77,0.97-1.56.12-4.02,0.71-6.4,2.37-9.52,1.17-11.11-1.42-19.19-0.31-.95.34,0.16,0.71-0.71,2.44-5.79.71-17.63,0.71-24.87V959.326c-4.98-3.55-16.22-19.247-19.9-24.875-7.85,3.669-14.57,11.743-23.45,13.5a39.956,39.956,0,0,0-7.81-10.66v-0.711c8.18-2.681,17.8-12.315,24.87-17.057,12.75-8.566,25.33-16.918,37.66-25.585C3319.81,890.221,3326.46,887.875,3330.86,883.28Zm437.71,1.422c5.7,4.09,10.67,11.426,14.92,17.057,5.02,6.655,12.73,11.825,17.76,18.478,3.57,4.72,8.33,12.818,14.21,14.925,4.57-5.844,12.44-9.788,18.48-14.214,10.4-7.634,20.55-16.654,30.55-24.875,2.27-1.861,14.91-11.317,15.63-10.661,14.16,9.072,25.06,23.36,38.38,33.4,8.39,6.331,21.49,15.313,27.71,23.454,7.14-3.676,13.23-10.52,19.18-15.636,1.36-1.167,5.56-4.432,6.4-3.553,4.1,2.8,6.36,7.991,9.95,11.371v1.421c-6.83,2.371-16.55,12.964-22.03,17.768-1.46,1.28-5.55,2.622-6.4,4.264V1113.55c8.93,4.6,17.46,18.82,26.29,22.03,2.68-3.47,18.22-15.44,22.74-16.35,1.97,6.4,7.64,11.22,10.66,17.06-9.33,2.88-20.36,13.81-28.42,19.19-13.44,8.97-26.58,18.19-39.79,27.01-6.34,4.23-14.03,7.38-19.19,12.79-8.52-3.01-14.44-13.98-21.32-19.19-7.95-6.02-14.24-14.01-22.02-19.9-5.69-4.31-12.75-9.28-17.06-14.92q9.945-9.6,19.9-19.19V974.961c-4.59-1.6-7.1-6.548-10.66-9.239-7.57-5.718-13.91-12.884-21.32-18.478-3.46-2.619-7.54-4.9-9.94-8.529-6.81,3.458-11.85,9.829-17.77,14.214-2.19,1.627-7.13,3.467-8.53,5.686V1121.37q12.795,11.37,25.58,22.74v0.71h-0.71c-5.42,7.9-15.99,11.89-21.31,19.9a2.012,2.012,0,0,1-.71-0.71c-2.19-1.73-3.79-5.22-6.4-6.4-11.85-5.32-29.11-8-41.21-.71-5.42,3.27-13.04,12.45-17.77,14.22-3.96-5.68-11.44-9.39-17.05-13.51-3.22-2.37-6.02-6.14-9.24-8.53-3.39-2.52-8.38-4.23-9.94-8.52,1.99-1.03,21.54-17.42,22.02-18.48V963.59c-5.12-3.483-18.51-19.345-22.02-24.875-6.48,3.077-11.96,7.742-17.77,11.372-1.59.992-5.07,2.694-5.68,2.132-2.86-2.686-6.65-7.234-7.82-11.372,9.34-3.067,17.73-12.5,25.58-17.767,13.3-8.929,26.21-17.962,39.08-27.007C3757.11,892.141,3763.92,889.552,3768.57,884.7Zm-704.17,20.61V1096.49q31.26,21.675,62.53,43.36V961.458c-6.77-2.4-10.95-10.84-16.35-14.925-11.61-8.787-21.06-19.648-32.68-28.428C3073.07,914.454,3069.57,908.77,3064.4,905.312Zm-657.98,20.611V1096.49c7.13,2.21,13.31,8.87,19.18,12.79,9.72,6.49,19.41,12.01,29.13,18.48,6.54,4.35,12.71,9.8,19.9,13.51V970.7c-7.13-2.208-13.31-8.873-19.19-12.793-9.71-6.484-19.4-12-29.13-18.478C2419.78,935.078,2413.6,929.632,2406.42,925.923Zm1123.4,115.137c6.51-1.08,11.48-6.87,16.34-9.95,10.35-6.56,20.57-12.61,30.55-19.19,4.43-2.91,13.62-5.59,15.64-10.66-6.54-4.777-13-18.461-17.77-25.588-10.36-15.478-24.09-30.091-32.68-46.907a2.418,2.418,0,0,0-1.42.711c-14.34,3.875-10.66,14.938-10.66,31.982v79.6Zm-1865.23,53.3v-139.3c-6.61-3.692-14.31-8.513-22.03-10.661-2.74,4.042-7.47,7.007-11.37,9.95-9.26,7-16.86,16.329-26.29,23.453-8.92,6.736-15.95,16.711-24.87,23.456-20.38,15.4-38.9,33.93-56.85,51.88-9.37,9.37-18.94,18.44-27,29.14-2.38,3.17-6.33,5.08-7.81,9.24h0.71c4.77-5.94,15.24-8.92,22.74-12.08,30.07-12.71,75.77-13.94,109.42-2.85,9.48,3.13,19.23,6.64,28.43,10.66C1654.52,1089.38,1658.59,1093.35,1664.59,1094.36Zm379.44-113.713c-0.42,36.5-2.6,64.393-17.77,85.993-4.96,7.07-11.62,13.89-17.76,19.9-2.38,2.33-5.18,3.56-7.11,6.4h2.85c5.5-3.59,31.27-.39,38.37,0,27.12,1.48,50.8,12.88,68.92,24.16,6.22,3.87,14.17,7.09,18.48,12.8h0.71v-0.72c3.81-2.13,15.7-10.39,16.34-14.92-2.06-2.85-1.65-6.76-2.84-10.66-4.07-13.31-5.48-28.22-9.95-41.93-12.12-37.19-24.7-60.89-55.42-79.6-6.89-4.193-15.52-9.211-25.58-9.95l-7.11,8.529h-2.13ZM1221.91,1095.78c1.93,0,3.26.03,4.26,0.71C1224.24,1096.5,1222.9,1096.46,1221.91,1095.78Zm29.13,1.42c1.47,0.27,1.37.17,2.13,0.71C1251.7,1097.65,1251.8,1097.74,1251.04,1097.2Zm-13.5,71.78a97.028,97.028,0,0,1,2.13-23.45,113.642,113.642,0,0,1,10.66-4.97c4.56-1.74,8.07.18,11.37-2.14,6.53-4.59,12.04-19.54,7.1-29.14-3.08-6-9.75-7.38-14.92-11.37,12.1-.21,24.29,2.87,34.11,5.69,21.33,6.12,40.25,9.65,58.97,17.77,8.46,3.66,17.35,10.46,27.01,12.08,2.36-3.08,15.09-12.69,19.18-13.5,1.7,5.43,6.65,8.25,8.53,13.5h-0.71c-6.73,7.01-16.19,12.04-24.16,17.77-3.97,2.85-6.8,7.78-12.79,8.52-11.23-8.84-34.13-9.9-47.61-1.42-2.56,1.61-3.8,4.73-5.68,7.11-1.79,2.25-5.39,3.3-7.11,5.69-2.21,3.07-2.81,6.8-4.97,9.95-1.54,2.23-4.23,3.12-5.69,5.68C1277.91,1180.05,1256.71,1170.2,1237.54,1168.98Zm48.32,44.78c0.77,16.66,4.03,41.8-7.82,49.75-6.89,4.88-14.73-.07-24.16,2.13-7.76,1.81-20.02,3.62-29.84,1.42-3.45-.77-12.72-3.2-17.06-1.42-0.47.71-.94,1.42-1.42,2.13-5.75,2.51-11.12-.48-14.21-2.13-0.37-.2-4.03,3.27-7.1,2.13-0.34-.12-1.62-1.97-2.14-2.13-2.6-.83-12.02.58-15.63,0.71-1.57-2.22-5.03-5.48-3.55-8.53,0.84-3.02,7.51-8.97,9.95-9.95,1.18,0.24,2.37.48,3.55,0.71,1.39-.62,11.45-21.52,12.08-24.16,1.45-6.1-.74-16.96,1.42-26.3,1.3-5.62,2.15-13.02,3.55-18.48q0.36-4.26.71-8.52c0.4-.99,2.52-1.4,2.85-2.14,1.54-3.48-2.61-3.47-1.43-7.1,3.07-9.37,3.62-23.73,5.69-34.12-4.06-2.9-3.5-5.1-11.37-4.97a2.582,2.582,0,0,0-1.42-.71,12.989,12.989,0,0,1-.71-4.27c2.01-3.05,1.24-6.35,4.97-7.81,3.86-3.69,10.48-6.36,17.77-6.4,5.03,6.22,17.43,5.86,22.73,4.26,8.77-2.64,23.51,3.74,24.16,9.95,1,2.75-1.16,8.19-3.55,9.95-0.63.24-4.68-.81-7.1,0-1.56.53-3.37,2.89-4.98,3.56-6.89,2.85-8.84,1-12.79,7.1-7.43,11.5-.92,26.83-4.26,41.94-2.55,11.49-3.25,22.76-6.4,34.11-2.36,8.52-5.2,18.22-5.68,28.43,3.98,2.65,7.58,7.28,12.08,9.24,17.14,7.44,35.55-3.93,41.92-14.22q1.785-5.325,3.55-10.66c3.04-5.03,7.47-9.3,11.37-13.5h4.27Zm1006.87-76.05q-5.685-.345-11.37-0.71c-0.24-.71-0.48-1.42-0.71-2.13-2.15-2.49-1.32-7.71,1.42-9.24,2.83-1.59,5.38-1.11,7.81-2.84,7.53-5.35,11.89-16.64,24.16-17.06,1.22,1.94,1.8,1.78,2.13,4.98,3.65,7.1-4.93,16.99-4.97,23.45,1,1.65-3.33,19.2-4.26,22.74-3.79,14.34-3.67,24.57-7.11,39.09-1.06,4.5.41,9.01,0,12.08-0.34,2.52-1.59,6.17-1.42,7.82,0.78,7.86-7.27,18.2-2.84,25.59,2.27,3.38,6.27,4.47,8.52,7.81h0.71v-0.71a28.531,28.531,0,0,0,6.4-6.39c3.15,1.45,4.28,2.3,4.26,7.1-6.31,9.07-7.31,18.86-21.31,20.61-0.71-1.18-1.42-2.36-2.14-3.55-1.75,1.09-1.61,1.63-4.26,2.13-1.46-2.48-3-4.23-4.26-7.1-2.84-.24-5.69-0.48-8.53-0.71-7.94,12.34-31.19,10.09-44.05,3.55-3.37-1.71-5.19-7.3-7.82-9.95,2.25-7.41-3.36-13.42-1.42-22.03,1.47-6.51,3.43-13.14,4.97-19.19q0.36-4.62.71-9.24c0.4-1.09,2.42-1.98,2.85-2.84,1.56-3.14.73-7.33,2.84-9.95,0.79-1,2.9-1.6,3.55-2.85,0.24-1.66.47-3.31,0.71-4.97,0.95-1.57,4.72-1.99,5.69-3.56,1.97-3.2.13-5.35,3.55-7.1,4.22-2.72,8.91.51,12.79-.71,1.61-.51,1.42-2.31,4.26-2.85,3.25,4.05,7.95,2.23,13.5,4.27,2.2,0.81,4.94,4.1,5.69,4.26C2287.11,1172.78,2293.04,1144.85,2292.73,1137.71Zm980.57-31.98c4.3,0,11.25,2.15,12.79,4.98,2.17,2.39.85,4.83,2.14,8.52,0.68,1.99,3.56,4.27,4.26,6.4,1.32,4.02-2.13,9.65-2.84,12.08-0.18.62,1.22,1.97,0.71,3.56-0.45,1.38-5.95,6.38-2.85,8.52-1.01.97-2.75,0.97-3.55,2.14-1.85,2.7-2.38,5.31-4.26,7.81-0.91,1.21-2.3,1.2-3.55,2.14-3.53,2.62-7.81,7.99-10.66,11.37-4.14,4.89-6.72,12.88-14.21,14.21-2.78-3.7-6.33-1.66-6.4-8.53,2.83-4.3,2.5-9.55,4.97-14.21,1.43-1.18,2.85-2.37,4.27-3.55,4.43-4.46,10.93-10.39,12.79-17.06a3.244,3.244,0,0,0-.71-2.84c-7.49-4.19-12.58,3.25-12.08-10.66-0.16-1.37,1.45-3.57,2.13-5.69,0.93-2.91-.02-5.56,1.42-7.82C3261.09,1111.74,3269.34,1110.53,3273.3,1105.73Zm-988.39,2.13h1.42v0.71h-0.71c-1.21,1.84-2.82,2.74-4.26,4.27h-1.42v-0.71h0.71C2281.95,1110.44,2283.68,1109.68,2284.91,1107.86Zm-549.98,135.75c0.01,1.93-.02,3.27-0.71,4.26-2.9,9.28-17.63,24.95-34.1,20.61-7.41-1.94-4.58-6.06-15.64-4.97-0.05-5.91-1.54-11.3-1.42-15.64,0.07-2.37,2.06-8.1.71-11.37-0.71-.47-1.42-0.95-2.13-1.42-1.4-3.03-.94-14.64,0-18.48,2.62-10.72,5.7-22.43,8.53-33.4,1.35-5.26-.11-11.85.71-15.64,0.38-1.77,2.89-5.08,3.55-7.1,2.35-7.19,2.78-15.68,2.84-24.17-2.94-1.55-15.74-5.6-16.34-6.39-2.72-6.15,5.1-2.54,9.24-4.27,0.47-.71.94-1.42,1.42-2.13q4.965-1.425,9.95-2.84c2.36-1.47,4.3-4.54,7.1-5.69,2.64-1.09,5.79.6,7.82,0,2.66-.78,5.69-4.96,8.52-6.4V1110c4.66,5.8-.52,10.74-1.42,16.34-0.31,1.96,1.55,5.54.71,8.53-0.93,3.34-3.77,7.75-4.26,11.37,0.47,1.42.95,2.84,1.42,4.27-0.78,4.47-4.98,10.67-6.39,15.63q-0.36,7.11-.71,14.22c-0.82,3.21-3.27,6.77-4.27,9.23-3.26,8.07,2.75,12.95.71,19.19-0.5,1.54-3.04,3.08-3.55,4.27v17.77c-0.5,2.24-1.89,7.41-2.13,9.23-0.19,1.46.46,1.61,0.71,2.14,0.88,2.92,2.44,3.83,4.26,5.68,1.66,1.9,3.32,3.79,4.98,5.69C1722.74,1257.59,1729.95,1244.93,1734.93,1243.61Zm1504.98,0c0,1.93-.03,3.27-0.71,4.26-2.9,9.28-17.64,24.95-34.11,20.61-7.4-1.94-4.58-6.06-15.63-4.97-0.05-5.91-1.55-11.3-1.42-15.64,0.06-2.37,2.05-8.1.71-11.37-0.71-.47-1.43-0.95-2.14-1.42-1.39-3.03-.93-14.64,0-18.48,2.62-10.72,5.71-22.43,8.53-33.4,1.36-5.26-.11-11.85.71-15.64,0.38-1.77,2.89-5.08,3.55-7.1,2.38-7.27,2.79-15.53,2.85-24.17-2.95-1.55-15.75-5.6-16.35-6.39-2.65-6.16,5.05-2.53,9.24-4.27,0.47-.71.95-1.42,1.42-2.13,3.23-1.65,7.75-.75,10.66-2.84,1.19-.86,2.22-3.41,3.55-4.27,3.86-2.48,7.3-.48,10.66-1.42,2.62-.73,5.74-4.98,8.53-6.4V1110c4.53,5.67-.29,10.43-1.42,15.63q0.345,4.62.71,9.24c-0.92,3.34-3.77,7.75-4.27,11.37,0.48,1.42.95,2.84,1.43,4.27-0.79,4.48-5,10.66-6.4,15.63q-0.36,7.11-.71,14.22c-0.81,3.2-3.27,6.77-4.26,9.23-3.25,8.08,2.74,12.93.71,19.19-0.5,1.54-3.05,3.08-3.56,4.27-0.28.66-1.42,29.14-1.42,29.14,0.88,2.92,2.45,3.83,4.27,5.68,1.65,1.9,3.31,3.79,4.97,5.69C3227.71,1257.59,3234.93,1244.93,3239.91,1243.61Zm-961.4-130.77h1.43v0.71A2.483,2.483,0,0,1,2278.51,1112.84Zm-78.16,2.13h6.4c2.65,3.91,7.27,5.3,8.52,10.66,3.79,5.82-5.19,14.43-7.81,17.06-8.94.16-13.28,0.63-19.9-2.13-6.13-9.31-.89-8.46,2.84-16.35,0.79-1.65-.46-3.17.71-4.26C2193.6,1117.63,2197.64,1117.05,2200.35,1114.97Zm154.19,0h6.4c2.66,3.91,7.27,5.3,8.53,10.66,3.78,5.82-5.2,14.43-7.82,17.06-8.93.16-13.28,0.63-19.9-2.13-6.12-9.31-.89-8.46,2.85-16.35,0.78-1.65-.47-3.17.71-4.26C2347.79,1117.63,2351.84,1117.05,2354.54,1114.97Zm506.64,0h6.39c2.66,3.91,7.27,5.3,8.53,10.66,3.78,5.82-5.19,14.43-7.82,17.06-8.93.16-13.27,0.63-19.89-2.13-6.13-9.31-.89-8.46,2.84-16.35,0.78-1.65-.46-3.17.71-4.26C2854.42,1117.63,2858.47,1117.05,2861.18,1114.97Zm-534.35,11.37a2.62,2.62,0,0,1,.71,1.42h-0.71v-1.42Zm-0.71,2.13c0.92,1.57.05,3.81-.71,5.69h-0.71v-1.42A12.072,12.072,0,0,0,2326.12,1128.47Zm-184.74,24.88c-0.49,5.13-1.17,6.78,0,11.37a19.937,19.937,0,0,1,4.97,4.26c3.42-1.86,10.52-1.65,14.92-.71,1.13,2.1,1.48,4.07,1.42,7.82-8.5,5.29-19.84,8.37-25.58,16.35-6.71,9.32-9.13,26.06-5.68,41.22a41.994,41.994,0,0,0-2.84,12.08c2.98,2.34,4.23,5.16,9.23,5.69,2.63-2.48,8.06-2.31,12.08-1.43,0.71,2.06.75,5.46,0.71,8.53-0.53.77-.42,0.68-0.71,2.14-14.21,9.49-17.42,5.89-37.66,5.68-1-2.99-4.23-5.85-6.39-7.82,0-6.16,1.83-8.75,4.26-12.08-2.19-6.85,2.06-20.49,4.97-25.58-0.21-1.64-2.05-2.34-1.42-4.98,0.6-2.48,2.43-4.72,2.13-8.53-0.26-3.42-1.6-6.52-2.13-8.53q0.72-4.965,1.42-9.95c-3.16-2.2-3.54-6.96-6.39-9.24-2.43-1.93-3.55.39-4.97-2.84-1.32-2.11-.58-7.62,1.42-8.53,1.14-.52,6.95.47,9.94-0.71,3.99-1.57,9.4-5.15,12.79-7.82,1.43-1.12,1.03-2.58,2.85-3.55C2133.2,1154.38,2137.49,1153.49,2141.38,1153.35Zm1336.57,0c-0.49,5.13-1.17,6.78,0,11.37a19.937,19.937,0,0,1,4.97,4.26c3.43-1.86,10.52-1.65,14.92-.71,1.13,2.1,1.48,4.07,1.42,7.82-8.5,5.29-19.84,8.37-25.58,16.35-6.71,9.32-9.13,26.06-5.68,41.22a41.994,41.994,0,0,0-2.84,12.08c2.98,2.34,4.23,5.16,9.23,5.69,2.63-2.48,8.06-2.31,12.08-1.43,0.71,2.06.75,5.46,0.71,8.53-0.53.77-.42,0.68-0.71,2.14-14.21,9.49-17.42,5.89-37.66,5.68-1-2.99-4.23-5.85-6.39-7.82,0.01-6.16,1.83-8.75,4.26-12.08-2.19-6.85,2.06-20.49,4.97-25.58-0.21-1.64-2.05-2.34-1.42-4.98,0.6-2.48,2.43-4.72,2.14-8.53-0.27-3.42-1.61-6.52-2.14-8.53q0.72-4.965,1.42-9.95c-3.16-2.2-3.54-6.96-6.39-9.24-2.43-1.93-3.55.39-4.97-2.84-1.32-2.11-.58-7.62,1.42-8.53,1.14-.52,6.95.47,9.94-0.71,3.99-1.57,9.4-5.15,12.79-7.82,1.43-1.12,1.03-2.58,2.85-3.55C3469.77,1154.38,3474.06,1153.49,3477.95,1153.35ZM2017.03,1254.98h-2.85c-2-3.08-6.15-8.2-4.97-12.08-1.77-3.84-5.09-7.26-6.39-12.08-1.13-4.16.39-15.01,1.42-18.48,1.19-4.04,4.37-8.08,6.39-11.37,7.99-13.05,11.76-28.51,27-34.12,6.04-2.22,22.16-3.02,24.16-4.26,2.29,1.3,8.62,3.43,15.63,3.55,5.19,7.35,15.86,14.1,18.48,23.45-0.24,1.43-.47,2.85-0.71,4.27,0.55,1.69,3.13,4.66,3.55,7.11,0.1,0.56-1.34,2.53-1.42,2.84v13.5c-2.28,5.42-5.5,13.16-7.82,18.48-1.96,4.51-2.34,9.13-5.68,12.08h-2.13q-5.685,6.045-11.37,12.08c-4.05,3.01-8.06,4.68-12.79,7.11-1.1.57-3.11,2.52-4.26,2.84-2.84.79-8.78-1.52-11.37-2.13h-12.79c-0.83-.44-0.11-2.39-0.71-2.84-0.95.24-1.9,0.47-2.85,0.71-1.89-.64-6.13-3.98-7.1-5.69C2017.37,1258.61,2017.18,1257.4,2017.03,1254.98Zm467.55-92.39c5.73,1.22,2.75,3.81,4.97,8.53,1.9,1.65,3.79,3.31,5.69,4.97q0.705,3.555,1.42,7.11h0.71v-0.71c5.36-4.91,11.4-8.88,16.34-14.22,7.76,0.01,19.04-1.38,23.45.71,6,4.2,3.23,6.82,4.26,13.51,1.19,2.37,2.37,4.74,3.56,7.1l2.13,0.72c1.09,1.79-.93,15.57-1.42,17.05-4.34,13.12-6.47,18.63-3.56,34.12,1.19,0.23,2.37.47,3.56,0.71,3.04-4.93,6.76-11.56,13.5-12.8,1.18,2.21,1.49,4.61,1.42,8.53-3.71,3.17-2.43,8.26-4.98,12.8-0.32.57-12.97,13.92-13.5,14.21-3.64,2.97-13.69,2.58-19.18,1.42-1.52-3.73-7.95-13.48-7.11-17.77,2.8-14.16,6.49-32.31,8.53-46.19,0.44-2.98-3.14-9.78-4.97-10.66h-9.24c-0.76-.54-0.67-0.43-2.13-0.71-3.5,5.13-11.5,6.26-14.93,11.37-1.39,2.07-3.87,15.03-3.55,16.34,0.18,0.72,2.14.87,2.13,2.14-0.03,3.84-3.37,7.86-4.26,10.66v9.95c-1.77,7.95-4.08,15.74-4.26,24.87h-1.42c-0.59.37-21.06,2.45-22.74,1.42-0.81-.49-1.43-2.82-2.13-3.55,7.62-19.34,9.34-41.37,14.92-61.83,1.07-3.92,3.36-17.76,1.42-19.19h-3.55c-1.37,1.28-11.37,4.97-11.37,4.97a14.959,14.959,0,0,1-7.82-5.68c9.28-3.23,13.72-14.01,22.74-17.77C2474.3,1165.62,2481.96,1164.63,2484.58,1162.59Zm488.15,0c5.74,1.22,2.76,3.81,4.98,8.53,1.89,1.65,3.79,3.31,5.68,4.97q0.72,3.555,1.42,7.11h0.71v-0.71c5.36-4.91,11.4-8.88,16.35-14.22,7.76,0.01,19.04-1.38,23.45.71,6,4.2,3.22,6.82,4.26,13.51,1.18,2.37,2.37,4.74,3.55,7.1l2.13,0.72c1.1,1.79-.93,15.57-1.42,17.05-4.33,13.12-6.46,18.63-3.55,34.12,1.18,0.23,2.37.47,3.55,0.71,3.05-4.93,6.77-11.56,13.5-12.8,1.19,2.21,1.49,4.61,1.43,8.53-3.71,3.17-2.44,8.26-4.98,12.8-0.32.57-12.97,13.92-13.5,14.21-3.65,2.97-13.69,2.58-19.18,1.42-1.52-3.73-7.96-13.48-7.11-17.77,2.79-14.16,6.49-32.31,8.53-46.19,0.43-2.98-3.14-9.78-4.98-10.66h-9.23c-0.77-.54-0.68-0.43-2.14-0.71-3.49,5.13-11.49,6.26-14.92,11.37-1.39,2.07-3.88,15.03-3.55,16.34,0.18,0.72,2.14.87,2.13,2.14-0.03,3.84-3.38,7.86-4.26,10.66v9.95c-1.78,7.95-4.08,15.74-4.27,24.87h-1.42c-0.58.37-21.05,2.45-22.74,1.42-0.8-.49-1.43-2.82-2.13-3.55,7.63-19.34,9.35-41.37,14.92-61.83,1.07-3.92,3.37-17.76,1.43-19.19h-3.56c-1.37,1.28-11.37,4.97-11.37,4.97a14.973,14.973,0,0,1-7.81-5.68c9.28-3.23,13.72-14.01,22.74-17.77C2962.46,1165.62,2970.12,1164.63,2972.73,1162.59Zm-1405.49,27.72v-4.98c1.93,0.01,3.27-.03,4.26-0.71,3.15-1.17,2.09-3.55,4.27-4.98,5.98-3.91,12.3-5.47,18.47-9.23,3.06-1.87,5.68-5.1,9.24-6.4,2.76,3.32,1.68-.85,4.26.71,0.42,0.25.08,2.48,0.71,2.84,2.63,1.53,2.2-1.94,4.27,1.42,3.13,4.85-.89,15.45-2.14,19.19-2.87,8.63-4.92,16.3-7.1,24.88q-0.72,6.39-1.42,12.79c-0.96,3.54-4.57,10.13-3.56,12.79,1.72,6.77,8.99,8.89,17.06,9.24,2.16-2.17,6.11-3.1,7.81-5.68,2.28-3.46,5.98-16.86,7.11-21.32,0.51-2.03-.85-4.8-0.71-5.69,0.47-.24.95-0.47,1.42-0.71,1.44-4.35,3.37-13.44,4.97-19.19,1.49-5.32,3.03-25.77,6.4-27.72,2.81-1.76,17.66-1.06,21.32.71-1.11,4.63-3.85,9.05-4.98,12.8q-0.345,8.88-.71,17.76c-2.09,8.25-6.38,19.15-4.26,29.14-0.8,2.39-3.53,6.96-2.13,11.37,0.89,2.82,3.48,5.48,4.97,7.82a2.447,2.447,0,0,0,1.42-.71c6.88-1.84,9.95-8.3,15.63-11.37v1.42c-1.31,2.4,1.18,4.95,1.43,9.24-3.87,1.68-4.1,5.98-6.4,9.24-0.86,1.21-12.56,11.67-13.5,12.08h-9.95c-1.89-2.94-5.48-6.79-6.39-10.66-0.7-2.94.45-6.99-.71-9.95h-1.43c-1.87,2.97-16.65,18.32-18.47,17.06-1.94-1.22-1.77-1.8-4.97-2.13-1.21,2.4-2.59,3.2-4.27,4.97a25.661,25.661,0,0,0-4.26-2.13c-2.11,3.45-4.01,4.44-9.95,4.26-1.88-1.32-4.57-1.45-6.39-2.84-1.27-.97-1.02-3.2-2.14-4.26-1.62-1.55-4.42-.88-5.68-2.85-1.03-1.6.14-3.61-.71-5.68-0.35-.86-2.46-2.51-2.84-3.56-3.04-8.25,2.07-13.87,3.55-19.19v-11.37c0.75-2.1,4.15-3.81,4.97-5.68q0.36-6.045.71-12.08c0.67-2.76,1.81-5.1,2.14-8.53-2.01-2.59-1.26-4.5-5.69-4.98-2.62,2.8-6.41,6.82-11.37,7.11a2.544,2.544,0,0,0-1.42-.71C1570.1,1191.16,1570.91,1190.93,1567.24,1190.31Zm322.6,0v-4.98c1.93,0.01,3.26-.03,4.26-0.71,3.14-1.17,2.09-3.55,4.26-4.98,5.99-3.91,12.3-5.47,18.48-9.23,3.06-1.87,5.68-5.1,9.23-6.4,2.77,3.32,1.69-.85,4.27.71,0.42,0.25.08,2.48,0.71,2.84,2.63,1.53,2.2-1.94,4.26,1.42,3.14,4.85-.88,15.45-2.13,19.19-2.88,8.63-4.93,16.3-7.11,24.88q-0.705,6.39-1.42,12.79c-0.95,3.54-4.56,10.13-3.55,12.79,1.72,6.77,8.98,8.89,17.05,9.24,2.17-2.17,6.12-3.1,7.82-5.68,2.28-3.46,5.98-16.86,7.11-21.32,0.51-2.03-.86-4.8-0.71-5.69,0.47-.24.94-0.47,1.42-0.71,1.44-4.35,3.37-13.44,4.97-19.19,1.48-5.32,3.03-25.77,6.4-27.72,2.8-1.76,17.62-1.03,21.31.71-1.11,4.63-3.84,9.05-4.97,12.8q-0.36,8.88-.71,17.76c-2.09,8.25-6.39,19.15-4.27,29.14-0.79,2.39-3.53,6.96-2.13,11.37,0.89,2.82,3.48,5.48,4.98,7.82a2.482,2.482,0,0,0,1.42-.71c6.87-1.84,9.95-8.3,15.63-11.37v1.42c-1.31,2.4,1.18,4.95,1.42,9.24-3.87,1.68-4.1,5.98-6.39,9.24-0.66.93-12.96,11.84-13.5,12.08H1968c-1.88-2.98-5.44-6.77-6.4-10.66-0.92-3.75,1.89-7.06-1.42-9.95v-0.71c-0.72-.7-0.7.7-0.71,0.71-2.68,2.62-16.15,18.83-18.47,17.06-1.94-1.22-1.78-1.8-4.98-2.13-1.2,2.4-2.58,3.2-4.26,4.97a26.055,26.055,0,0,0-4.26-2.13c-2.12,3.45-4.02,4.44-9.95,4.26-1.88-1.32-4.58-1.45-6.4-2.84-1.27-.97-1.01-3.2-2.13-4.26-1.61-1.54-4.52-.81-5.68-2.85-0.24-1.89-.48-3.79-0.71-5.68-0.37-.87-2.46-2.5-2.85-3.56-3.03-8.25,2.08-13.87,3.56-19.19v-11.37c0.74-2.1,4.14-3.81,4.97-5.68q0.36-6.045.71-12.08c0.67-2.76,1.81-5.1,2.13-8.53-2.01-2.59-1.25-4.5-5.68-4.98-2.62,2.8-6.42,6.82-11.37,7.11a2.62,2.62,0,0,0-1.42-.71C1892.7,1191.16,1893.51,1190.93,1889.84,1190.31Zm824.96,0v-4.98c1.93,0.01,3.27-.03,4.26-0.71,3.15-1.17,2.09-3.55,4.27-4.98,5.98-3.91,12.3-5.47,18.47-9.23,3.06-1.87,5.68-5.1,9.24-6.4,2.76,3.32,1.68-.85,4.26.71,0.42,0.25.08,2.48,0.71,2.84,2.63,1.53,2.2-1.94,4.27,1.42,3.13,4.85-.89,15.45-2.14,19.19-2.87,8.63-4.92,16.3-7.1,24.88q-0.7,6.39-1.42,12.79c-0.96,3.54-4.57,10.13-3.56,12.79,1.72,6.77,8.99,8.89,17.06,9.24,2.16-2.17,6.11-3.1,7.81-5.68,2.28-3.46,5.98-16.86,7.11-21.32,0.51-2.03-.85-4.8-0.71-5.69,0.47-.24.95-0.47,1.42-0.71,1.44-4.35,3.37-13.44,4.97-19.19,1.49-5.32,3.03-25.77,6.4-27.72,2.81-1.76,17.62-1.03,21.32.71-1.11,4.63-3.85,9.05-4.98,12.8q-0.345,8.88-.71,17.76c-2.09,8.25-6.38,19.15-4.26,29.14-0.8,2.39-3.53,6.96-2.13,11.37,0.89,2.82,3.48,5.48,4.97,7.82a2.447,2.447,0,0,0,1.42-.71c6.88-1.84,9.96-8.3,15.63-11.37v1.42c-1.31,2.4,1.18,4.95,1.43,9.24-3.87,1.68-4.1,5.98-6.4,9.24-0.66.93-12.95,11.84-13.5,12.08h-9.95c-1.87-2.98-5.44-6.77-6.39-10.66-0.92-3.75,1.89-7.06-1.42-9.95v-0.71h-0.71v0.71c-2.68,2.62-16.15,18.83-18.48,17.06-1.94-1.22-1.77-1.8-4.97-2.13-1.21,2.4-2.59,3.2-4.27,4.97a25.661,25.661,0,0,0-4.26-2.13c-2.11,3.45-4.01,4.44-9.95,4.26-1.88-1.32-4.57-1.45-6.39-2.84-1.27-.97-1.02-3.2-2.13-4.26-1.61-1.54-4.53-.81-5.69-2.85-0.24-1.89-.47-3.79-0.71-5.68-0.37-.87-2.45-2.5-2.84-3.56-3.04-8.25,2.07-13.87,3.55-19.19v-11.37c0.75-2.1,4.15-3.81,4.97-5.68q0.36-6.045.72-12.08c0.66-2.76,1.8-5.1,2.13-8.53-2.01-2.59-1.26-4.5-5.69-4.98-2.62,2.8-6.41,6.82-11.37,7.11a2.544,2.544,0,0,0-1.42-.71C2717.66,1191.16,2718.47,1190.93,2714.8,1190.31Zm-1397.68,47.61h2.13c0.89,6.77,7.98,10.91,14.92,11.37,3.8-5.17,7.55-8.72,17.06-8.52,0.76-.54.67-0.43,2.13-0.72a7.6,7.6,0,0,0,1.42,2.14c-1.81,4.53-5.5,12.87-9.24,15.63l-6.39,2.13c-7.54,4.5-3.01,8.05-17.77,7.82-1.51-.96-3.79-0.59-5.68-1.42-4.43-1.95-14.99-9.41-17.05-13.5q-0.72-4.275-1.42-8.53c-4.44-15.27-4.03-36.97,4.26-49.04,2.13-3.1,6.35-5.1,8.53-8.53,2.94-4.65,9.1-15.43,13.5-17.77,3.26-1.73,19.7-6.14,24.87-3.55,1.49,0.75,2.88,3.59,4.26,4.26,6.33,3.12,7.28-2.32,7.11,8.53,1.81,2.61,1.26,6.33,2.13,9.95,3.24,13.6-10.93,18.02-19.19,22.75,0.24,0.94.48,1.89,0.71,2.84-5.72.97-8.85,4.64-12.79,7.11-4.63,2.89-11.9,2.75-19.18,2.84-1.59,2.37-2.62,2.27-2.85,6.39,1.81,2.31,2.41,6.37,3.56,9.24a12.023,12.023,0,0,0,4.26,1.43v-0.72h0.71v-2.13Zm144.25-73.2c10.77-.2,13.42,3.21,21.31,4.97,2.61,7.8,6.34,8.86,4.27,19.19a17.9,17.9,0,0,0-3.56,2.85,40.24,40.24,0,0,1-8.52-.71c-1.19-1.43-2.37-2.85-3.56-4.27-1.44-3.58,2.43-5.23-4.26-7.11-1.58-1.27-3.41-1.41-6.39-1.42a49.34,49.34,0,0,1-4.98,3.56c1.09,5.43,1.64,12.8,4.26,17.05,2.6,4.22,7.16,5.17,11.37,7.82,6.27,3.94,10.95,19.65,10.66,28.43-0.12,3.8,2.05,9.44,0,12.79-0.83,2.67-4.12,8.04-6.39,9.24-0.71-.24-1.42-0.47-2.13-0.71-2.39,1.59-2.91,5.59-5.69,7.11-11.19,6.13-24.13,7.82-39.08,4.26a35.955,35.955,0,0,0-4.26-4.97c-0.24-6.75-.12-13.45,2.84-17.06,1.01-.68,2.32-0.69,4.26-0.71a34.1,34.1,0,0,0,26.29,9.95c1.6-3.16,4.19-4.74,4.98-8.53-0.94-1.5.19-4.33-.71-6.4-0.76-1.73-4.05-3.35-4.98-4.97v-2.84c-0.63-.86-2.87-1.17-3.55-2.14-10.16-14.43-31.34-27.86-14.92-50.46,3.38-4.65,10.84-10.44,16.34-12.79C1457.42,1165.81,1459.53,1166.13,1461.37,1164.72Zm55.42,73.2h2.13c0.89,6.77,7.98,10.91,14.92,11.37,3.8-5.17,7.55-8.72,17.06-8.52,0.76-.54.67-0.43,2.13-0.72a7.6,7.6,0,0,0,1.42,2.14c-1.81,4.53-5.5,12.87-9.24,15.63l-6.39,2.13c-7.54,4.5-3.01,8.05-17.77,7.82-1.51-.96-3.8-0.59-5.68-1.42-4.57-2.01-14.91-9.27-17.05-13.5-0.48-2.85-.95-5.69-1.43-8.53-4.17-15.44-4.14-36.79,4.27-49.04,2.13-3.1,6.35-5.1,8.52-8.53,3.12-4.93,8.72-15.23,13.5-17.77,3.24-1.71,19.81-6.09,24.87-3.55,1.5,0.75,2.89,3.59,4.27,4.26,2.13,1.06,5.84-.3,7.1,1.43v7.1c1.81,2.61,1.27,6.33,2.14,9.95,3.24,13.6-10.93,18.02-19.19,22.75,0.24,0.94.47,1.89,0.71,2.84-5.72.97-8.85,4.64-12.79,7.11-4.64,2.89-11.9,2.75-19.18,2.84-1.59,2.37-2.63,2.27-2.85,6.39,1.8,2.31,2.41,6.37,3.56,9.24a12.023,12.023,0,0,0,4.26,1.43v-0.72h0.71v-2.13Zm883.94,0h2.13c0.89,6.77,7.98,10.91,14.92,11.37,3.8-5.17,7.55-8.72,17.06-8.52,0.76-.54.67-0.43,2.13-0.72a7.6,7.6,0,0,0,1.42,2.14c-1.81,4.53-5.5,12.87-9.24,15.63l-6.39,2.13c-7.54,4.5-3.01,8.05-17.77,7.82-1.51-.96-3.79-0.59-5.68-1.42-4.43-1.95-14.99-9.41-17.05-13.5q-0.72-4.275-1.42-8.53c-4.44-15.27-4.03-36.97,4.26-49.04,2.13-3.1,6.35-5.1,8.53-8.53,3.12-4.93,8.71-15.23,13.5-17.77,3.26-1.73,19.7-6.14,24.87-3.55,1.49,0.75,2.88,3.59,4.26,4.26,6.33,3.12,7.28-2.32,7.1,8.53,1.82,2.61,1.27,6.33,2.14,9.95,3.24,13.6-10.93,18.02-19.19,22.75,0.24,0.94.47,1.89,0.71,2.84-5.72.97-8.85,4.64-12.79,7.11-4.63,2.89-11.9,2.75-19.18,2.84-1.59,2.37-2.62,2.27-2.85,6.39,1.8,2.31,2.41,6.37,3.56,9.24a12.023,12.023,0,0,0,4.26,1.43v-0.72h0.71v-2.13Zm677.17,0h2.13c0.89,6.77,7.98,10.91,14.92,11.37,3.8-5.17,7.55-8.72,17.06-8.52,0.76-.54.67-0.43,2.13-0.72a7.6,7.6,0,0,0,1.42,2.14c-1.81,4.53-5.5,12.87-9.24,15.63l-6.39,2.13c-7.54,4.5-3.02,8.05-17.77,7.82-1.51-.96-3.8-0.59-5.68-1.42-4.43-1.95-15-9.41-17.06-13.5q-0.705-4.275-1.42-8.53c-4.43-15.27-4.02-36.97,4.27-49.04,2.12-3.1,6.35-5.1,8.52-8.53,2.95-4.65,9.1-15.43,13.5-17.77,3.27-1.73,19.71-6.14,24.87-3.55,1.5,0.75,2.89,3.59,4.27,4.26,6.32,3.12,7.27-2.32,7.1,8.53,1.81,2.61,1.27,6.33,2.13,9.95,3.25,13.6-10.92,18.02-19.18,22.75,0.24,0.94.47,1.89,0.71,2.84-5.72.97-8.85,4.64-12.79,7.11-4.64,2.89-11.9,2.75-19.19,2.84-1.58,2.37-2.62,2.27-2.84,6.39,1.8,2.31,2.4,6.37,3.55,9.24a12.152,12.152,0,0,0,4.27,1.43v-0.72h0.71v-2.13Zm243.72,0h2.13c0.89,6.77,7.98,10.91,14.93,11.37,3.79-5.17,7.54-8.72,17.05-8.52,0.76-.54.67-0.43,2.13-0.72a7.6,7.6,0,0,0,1.42,2.14c-1.81,4.53-5.5,12.87-9.24,15.63l-6.39,2.13c-7.54,4.5-3.01,8.05-17.77,7.82-1.51-.96-3.79-0.59-5.68-1.42-4.43-1.95-14.99-9.41-17.05-13.5q-0.72-4.275-1.42-8.53c-4.44-15.27-4.03-36.97,4.26-49.04,2.13-3.1,6.35-5.1,8.53-8.53,3.12-4.93,8.71-15.23,13.5-17.77,3.26-1.73,19.7-6.14,24.87-3.55,1.49,0.75,2.88,3.59,4.26,4.26,6.33,3.12,7.28-2.32,7.11,8.53,1.81,2.61,1.26,6.33,2.13,9.95,3.24,13.6-10.93,18.02-19.19,22.75,0.24,0.94.48,1.89,0.71,2.84-5.72.97-8.85,4.64-12.79,7.11-4.63,2.89-11.9,2.75-19.18,2.84-1.59,2.37-2.62,2.27-2.85,6.39,1.81,2.31,2.41,6.37,3.56,9.24a12.023,12.023,0,0,0,4.26,1.43v-0.72h0.71v-2.13Zm87.4-73.2c10.77-.2,13.43,3.21,21.32,4.97,2.6,7.8,6.33,8.86,4.26,19.19a17.556,17.556,0,0,0-3.55,2.85,40.339,40.339,0,0,1-8.53-.71c-1.18-1.43-2.37-2.85-3.55-4.27-1.44-3.58,2.43-5.23-4.26-7.11-1.59-1.27-3.41-1.41-6.4-1.42a48.117,48.117,0,0,1-4.97,3.56c1.09,5.43,1.64,12.8,4.26,17.05,2.6,4.22,7.15,5.17,11.37,7.82,6.26,3.94,10.95,19.65,10.66,28.43-0.13,3.8,2.05,9.44,0,12.79-0.83,2.67-4.13,8.04-6.4,9.24-0.71-.24-1.42-0.47-2.13-0.71-2.39,1.59-2.91,5.59-5.68,7.11-11.2,6.13-24.13,7.82-39.09,4.26a35.955,35.955,0,0,0-4.26-4.97c-0.23-6.75-.12-13.45,2.84-17.06,1.01-.68,2.33-0.69,4.27-0.71a34.067,34.067,0,0,0,26.29,9.95c1.6-3.16,4.19-4.74,4.97-8.53-0.95-1.52.16-4.28-.71-6.4h-0.71c-1.04-1.84-2.56-2.76-3.55-4.26-0.24-1.18-.48-2.37-0.71-3.55-11.15-14.18-36.18-28.23-18.48-52.6,3.39-4.65,10.84-10.44,16.35-12.79C3405.07,1165.81,3407.19,1166.13,3409.02,1164.72Zm183.33,150.67q0.345,3.555.71,7.11c-2.25,1.45-4.48,3.98-7.11,4.97-2.6.48-5.21,0.95-7.81,1.42-5.11,3.08-4.55,7.01-13.51,7.11a2.544,2.544,0,0,0-1.42-.71c-7.09-11.98-2.54-36.53.71-49.75,3-12.16,3.03-24.44,5.69-36.25q0.36-7.455.71-14.92c1.14-2.88,9.29-23.72,7.82-29.85q-2.49-7.47-4.98-14.93c-2.37-.37-3.56-1.87-4.97-2.13-2.13.48-4.27,0.95-6.4,1.42v-2.84c11-9,8.45-25.33,31.27-19.9,1.31,2.01,3.73,3.12,4.97,4.98,2.05,3.06,2.24,7.71,3.55,11.37h0.71v-0.71c3.59-2.36,6.45-7.67,7.82-12.09,5.78,0.92,16.44-4.24,24.16,0,6.71,3.09,12.21,12.24,14.21,19.9,1.12,4.31-2.18,5.14-1.42,9.24,0.17,0.93,1.61,3.67,1.42,4.98-0.42,2.91-3.43,6.8-2.84,10.66,3.24,21.4-21.17,43.49-36.24,49.75-5.15,2.14-13.09,2.38-18.47,3.55a38.629,38.629,0,0,1-8.53,10.66c0,3.55.88,5.59,1.42,7.82,2.09,8.59-1.33,19.45,1.42,26.3C3587.62,1313.95,3588.61,1315.07,3592.35,1315.39Zm194.69-150.67c10.77-.2,13.43,3.21,21.32,4.97,2.6,7.8,6.33,8.86,4.26,19.19a17.556,17.556,0,0,0-3.55,2.85,40.339,40.339,0,0,1-8.53-.71c-1.18-1.43-2.37-2.85-3.55-4.27-1.44-3.58,2.43-5.23-4.26-7.11-2.82-2.3-6.01-.84-9.24,0a6.5,6.5,0,0,1-2.13,2.14c1.09,5.43,1.64,12.8,4.26,17.05,2.6,4.22,7.15,5.17,11.37,7.82,6.26,3.94,10.95,19.65,10.66,28.43-0.13,3.8,2.05,9.44,0,12.79-0.83,2.67-4.13,8.04-6.4,9.24-0.71-.24-1.42-0.47-2.13-0.71-2.39,1.59-2.91,5.59-5.68,7.11-11.2,6.13-24.13,7.82-39.09,4.26a35.955,35.955,0,0,0-4.26-4.97c-0.23-6.75-.12-13.45,2.84-17.06,1.01-.68,2.33-0.69,4.27-0.71a34.067,34.067,0,0,0,26.29,9.95c1.6-3.16,4.19-4.74,4.97-8.53-0.95-1.52.16-4.28-.71-6.4h-0.71c-1.04-1.84-2.56-2.76-3.55-4.26-0.24-1.18-.48-2.37-0.71-3.55-11.15-14.18-36.18-28.23-18.48-52.6,3.39-4.65,10.84-10.44,16.35-12.79C3783.09,1165.81,3785.21,1166.13,3787.04,1164.72Zm-1937.71.71c8.8-.19,11.67,2.06,16.35,5.69,1.96,1.52,7.55,1.52,9.23,2.84,1.15,0.89,1.03,3.97,2.14,4.97,2.68,2.43,6.07,1.48,7.81,4.98,0.74,1.47.24,25.43-.71,27.72-0.59,1.4-3.8,2.99-4.26,4.26-0.78,2.14,1.21,10.38,0,14.21-1.63,5.15-4.2,11.78-5.69,17.77q-0.345,6.75-.71,13.51c-1.32,3.36-4.88,7.98-5.68,12.08-0.63,3.24,1.55,2.81,2.13,4.26v22.03c3.91,2.24,8.49,6.04,9.95,10.66-14.86,3.12-20.35,13.41-36.95,9.95v-0.71c3.87-6.02,2.25-16.63,4.26-24.16,2.74-10.26,8.33-18.23,8.53-30.56-1.7-1.82-1.54-3.27-4.26-4.26-0.84-.58-1.2-0.55-2.85-0.72-5.06,6.56-15.84,6.53-27.71,6.4-6.89-8.81-19.1-15.94-23.45-27.01v-8.52c-0.63-2.31-3.49-3.77-2.84-7.11,0.71-3.67,7.12-18.9,9.24-22.03,1.66-1.42,3.31-2.85,4.97-4.27,1.01-1.73.39-3.4,1.42-4.97,2.9-4.42,9.32-4.7,9.95-11.37-1.68-2.52-.24-6.8,0-9.95h1.42C1828.96,1165.8,1843.08,1171.51,1849.33,1165.43Zm824.97,0c8.8-.19,11.67,2.07,16.34,5.69,1.94,1.5,7.6,1.54,9.24,2.84,1.18,0.93.89,4.01,2.13,4.97,2.94,2.29,6.08,1.49,7.82,4.98,0.73,1.47.24,25.44-.71,27.72-0.59,1.4-3.8,2.99-4.27,4.26-0.78,2.14,1.22,10.38,0,14.21-1.62,5.15-4.2,11.78-5.68,17.77q-0.36,6.75-.71,13.51c-1.33,3.36-4.89,7.98-5.69,12.08-0.63,3.24,1.56,2.81,2.13,4.26v22.03c3.91,2.24,8.49,6.04,9.95,10.66-14.86,3.12-20.34,13.41-36.95,9.95v-0.71c3.88-6.02,2.26-16.63,4.27-24.16,2.73-10.26,8.32-18.23,8.52-30.56-1.69-1.82-1.53-3.27-4.26-4.26-0.84-.58-1.2-0.55-2.84-0.72-5.07,6.56-15.84,6.53-27.71,6.4-6.9-8.81-19.1-15.94-23.45-27.01v-8.52c-0.63-2.31-3.49-3.77-2.85-7.11,0.71-3.67,7.13-18.9,9.24-22.03,1.66-1.42,3.32-2.85,4.98-4.27,1.01-1.73.39-3.4,1.42-4.97,2.9-4.42,9.32-4.7,9.94-11.37-1.67-2.52-.24-6.8,0-9.95h1.43C2653.93,1165.8,2668.05,1171.51,2674.3,1165.43Zm1061.58,11.37c-0.15,4.34-1.9,4.09-2.84,6.4-0.31.75,2.16,5.6,1.42,8.53-0.66,2.6-2.87,5.7-3.55,7.81v12.09c-3.08,13.19-7.66,22.95-7.82,39.09a12.327,12.327,0,0,0,6.4,2.13c1.38-1.1,3.41-1.07,4.97-2.13,3-2.05,5.95-7.48,7.82-10.67a2.04,2.04,0,0,1,.71.72c1.26,1.36,1.34,2.22,1.42,4.97-6.65,6.71-10.91,21.03-22.03,22.74-1.56-1.15-3.68-1.36-6.4-1.42-2.72-5.71-6.12-13.54-14.92-13.5a2.544,2.544,0,0,1-1.42.71c-1.06,2.67-3.35,6.61-5.68,7.82-0.71-.24-1.42-0.48-2.13-0.71-1.44.84-2.76,3.34-4.27,4.26-7.68,4.68-14.89.61-19.89-2.84-2.17-1.49-4.5-1.79-5.69-4.27-1.89-2.11-6.96-17.81-7.1-21.32,5.62-4.78,1.63-11.07.71-18.48-0.12-.91,1.16-1.18.71-2.84-0.51-1.85-3.37-4.98-2.13-8.53,2.02-5.84,8.77-13.96,12.07-19.19,1.64-2.58,3.04-7.93,5.69-9.24h6.39c1.92-3.02,10.91-11.63,14.22-12.79h11.36c2.65-.18,4.7-0.91,6.4,0,7.02,7.13,6.25,7.66,19.19,7.11C3730.33,1176.75,3731.42,1176.98,3735.88,1176.8Zm-1539.08-9.95c3.88,0.65,6.66,1.5,7.82,4.98,3.6,5.1-.6,15.18-2.14,19.9-2.77,8.51-5.22,15.12-7.1,23.45q0.345,3.555.71,7.11c-2.35,11.33-10.69,15.88,0,27.71l9.24-4.26c4.27-3.09,4.45-9.36,11.36-9.95,0.83,2.39.76,6.5,0.72,9.95-2.37,2.48-3.64,6.5-6.4,8.53-2.69,1.98-6.04,2.76-8.53,4.97-3,2.69-4.82,6.5-9.94,7.11-1.81,1.2-11.75.87-12.08,0.71-3.48-4.37-4.19-6.2-9.95-8.53-0.41-2.59-4.48-9.09-2.84-12.08,0.89-1.63,3.84-1.51,3.55-4.97-0.13-1.52-1.81-5.01-2.13-6.4-0.25-1.05,2.24-18.05,2.84-19.9,1.89-5.84,5.94-8.04,7.82-12.08,2.6-5.64.7-13.13,1.42-19.19a12.989,12.989,0,0,0-4.27-.71c-1.2.81-3.48,0.76-5.68,0.71-1.38-2.19-2.05-2.44-2.13-6.4,3.12-2.01,5.53-5.69,9.23-7.1h6.4C2187.95,1169.64,2193.95,1168.72,2196.8,1166.85Zm154.19,0c3.88,0.65,6.66,1.5,7.82,4.98,3.59,5.08-.59,15.13-2.13,19.9-2.76,8.52-5.23,15.12-7.11,23.45,0.24,2.37.47,4.74,0.71,7.11-2.35,11.33-10.69,15.88,0,27.71l9.24-4.26c4.27-3.09,4.45-9.36,11.37-9.95,0.82,2.39.76,6.5,0.71,9.95-2.36,2.48-3.64,6.5-6.4,8.53-2.68,1.98-6.04,2.76-8.52,4.97-3.01,2.69-4.83,6.5-9.95,7.11-1.81,1.2-11.75.87-12.08,0.71-3.47-4.37-4.19-6.2-9.95-8.53-0.41-2.59-4.48-9.09-2.84-12.08,0.89-1.63,3.85-1.51,3.55-4.97-0.13-1.52-1.8-5.01-2.13-6.4-0.25-1.05,2.24-18.05,2.84-19.9,1.89-5.84,5.95-8.04,7.82-12.08,2.6-5.64.7-13.13,1.42-19.19a12.972,12.972,0,0,0-4.26-.71c-1.2.81-3.48,0.76-5.69,0.71-1.38-2.19-2.05-2.44-2.13-6.4,3.12-2.01,5.53-5.7,9.24-7.1h7.1C2342.42,1169.72,2348.39,1168.56,2350.99,1166.85Zm506.63,0c3.88,0.65,6.66,1.5,7.82,4.98,3.59,5.08-.59,15.13-2.13,19.9-2.76,8.52-5.23,15.12-7.11,23.45q0.36,3.555.71,7.11c-2.34,11.33-10.68,15.88,0,27.71l9.24-4.26c4.28-3.09,4.45-9.36,11.37-9.95,0.82,2.39.76,6.5,0.71,9.95-2.36,2.48-3.63,6.5-6.4,8.53-2.68,1.98-6.04,2.76-8.52,4.97-3.01,2.69-4.83,6.5-9.95,7.11-1.8,1.2-11.75.87-12.08,0.71-3.47-4.37-4.19-6.2-9.95-8.53-0.41-2.59-4.47-9.09-2.84-12.08,0.89-1.63,3.85-1.51,3.55-4.97-0.13-1.52-1.8-5.01-2.13-6.4-0.25-1.05,2.24-18.05,2.84-19.9,1.9-5.84,5.95-8.04,7.82-12.08,2.61-5.64.7-13.13,1.42-19.19a12.922,12.922,0,0,0-4.26-.71c-1.2.81-3.48,0.76-5.69,0.71-1.38-2.19-2.05-2.44-2.13-6.4,3.13-2.01,5.53-5.7,9.24-7.1h7.1C2849.05,1169.72,2855.02,1168.56,2857.62,1166.85Zm-1121.27,8.53c5.77,0.28,11.55,2.37,16.35,4.26-4.98,14.37-8.96,27.37-16.35,39.09-4.53,7.19-11.67,13.17-15.63,20.61h-2.13a161.916,161.916,0,0,1,4.97-30.56v-6.39c0.46-1.03,2.9-2.52,3.56-3.56C1731.22,1192.34,1735.09,1184.22,1736.35,1175.38Zm-402.89,2.84c-1.16,2.56.37,2.71-.71,4.98q-2.475,2.13-4.97,4.26c-3.14,4.26-11.01,15.99-11.37,22.75a1.934,1.934,0,0,1,.71.71c13.43-3.46,26.01-6.58,25.58-24.17-0.71-1.89-1.42-3.79-2.13-5.68C1336.53,1180.67,1336.83,1179.08,1333.46,1178.22Zm199.67,0c-1.16,2.56.37,2.71-.71,4.98-1.66,1.42-3.31,2.84-4.97,4.26-3.14,4.26-11.01,15.99-11.37,22.75h0.71v0.71c13.43-3.46,26.01-6.58,25.58-24.17-0.71-1.89-1.42-3.79-2.13-5.68C1536.2,1180.67,1536.5,1179.08,1533.13,1178.22Zm92.38,0c0.76,1.24.73,1.62,0,2.85v-2.85Zm791.56,0c-1.16,2.56.37,2.71-.71,4.98q-2.475,2.13-4.97,4.26c-3.14,4.26-11.01,15.99-11.37,22.75h0.71v0.71c13.43-3.46,26.01-6.58,25.58-24.17-0.71-1.89-1.42-3.79-2.13-5.68C2420.14,1180.67,2420.44,1179.08,2417.07,1178.22Zm677.17,0c-1.16,2.56.37,2.71-.71,4.98q-2.49,2.13-4.97,4.26c-3.14,4.26-11.01,15.99-11.37,22.75h0.71v0.71c13.43-3.46,26.01-6.58,25.58-24.17-0.71-1.89-1.42-3.79-2.13-5.68C3097.31,1180.67,3097.61,1179.08,3094.24,1178.22Zm243.72,0c-1.16,2.56.37,2.71-.71,4.98q-2.475,2.13-4.97,4.26c-3.14,4.26-11.01,15.99-11.37,22.75h0.71v0.71c13.43-3.46,26.01-6.58,25.58-24.17-0.71-1.89-1.42-3.79-2.13-5.68C3341.03,1180.67,3341.33,1179.08,3337.96,1178.22Zm-1713.16,3.56a2.544,2.544,0,0,1,.71,1.42h-0.71v-1.42Zm2073.42,0.71c-2.57,2.03-5.96,3-7.82,5.68-0.47,1.42-.94,2.85-1.42,4.27-1.18.23-2.37,0.47-3.55,0.71-0.24,1.42-.47,2.84-0.71,4.26a157.75,157.75,0,0,0-5.68,17.06c-0.86,3.25.71,3.91,0,6.4-0.49,1.67-3.06,4.01-3.56,5.68-1.7,5.73,6.19,18.63,9.24,19.9h7.11c1.87-5.28,2.56-1.3,5.68-3.55,3.05-2.2,1.44-6.21,6.39-8.53,1.72-17.53,6.49-28.64,7.11-44.78a40.253,40.253,0,0,1-9.24-7.1h-3.55Zm-1652.06.71c-3.83,3.79-9.75,6.14-12.79,10.66-4.07,6.05-6.85,17.12-8.53,22.74-1.88,6.29,3.04,9.12,4.27,12.08-0.24,1.19-.48,2.37-0.71,3.56a66.8,66.8,0,0,0,2.13,6.39c2.74,6.07,12.81,11.91,20.6,12.09,2.32-1.71,4.72-.73,7.82-2.14,4.68-2.13,10.82-9.17,13.5-13.5,3.81-6.15,8.83-31.39,3.55-38.38-1.89-2.5-6.29-3.44-8.52-5.68-2.86-2.87-1.27-5.34-7.11-5.69Zm1568.21,2.84c-5.15,5.49-12.33,9.85-16.34,16.35-1.32,2.13-.19,4.55-1.42,7.1-1.42,1.19-2.84,2.37-4.26,3.56q-1.425,7.455-2.85,14.92c0.27,0.86,2.48,3,2.85,4.27v5.68c1.94,6.95,5.89,15,14.21,15.64,10.82-8.57,17.35-15.58,21.31-31.27q-0.345-8.535-.71-17.06c0.72-3.58-2.01-13.46-4.26-16.35C3620.87,1186.75,3618.64,1186.06,3614.37,1186.04Zm-1352.2.71c-2.49,1.78-6.24,2.41-9.24,3.56-4.33,7.58-7.11,21.93-9.23,31.27-0.8,3.49-1.7,10.75,0,13.5,0.39,1.35,7.06,11.02,7.81,11.37h12.08c1.83-2.71,5.53-4.46,7.11-7.11,1.14-1.91.23-3.65,1.42-5.68,0.95-.48,1.89-0.95,2.84-1.42,2.78-4.96.71-10.38,2.13-17.06,0.83-3.9,2.89-14.26.71-17.77-1.71-5.13-5.84-7.26-9.23-10.66h-6.4Zm-415.68.71c-5.45,3.54-16.81,3.55-17.05,12.08-5.42,5.33-9.71,17.01-11.37,25.59-0.83,4.29,1.89,6.2,2.13,10.66,0.72,0.42,1.64,1.94,2.13,2.13,2.61,1.02,4.56-1.47,7.11.71,5.65,4.83,6.42,11.1,17.05,11.37,3.08-3.75,10.37-5.67,14.92-7.81a42.036,42.036,0,0,1,4.98-19.19c-0.21-1.87-2.25-3.73-1.42-7.11,1.51-6.2,4.36-11.64,2.84-19.9C1859.03,1193.8,1857.39,1187.67,1846.49,1187.46Zm824.97,0c-5.46,3.54-16.82,3.55-17.06,12.08-5.42,5.33-9.71,17.01-11.37,25.59-0.83,4.29,1.89,6.2,2.13,10.66,0.72,0.42,1.64,1.94,2.14,2.13,2.61,1.02,4.55-1.47,7.1.71,5.65,4.83,6.42,11.1,17.06,11.37,3.07-3.75,10.36-5.67,14.92-7.81a42.034,42.034,0,0,1,4.97-19.19c-0.21-1.87-2.25-3.73-1.42-7.11,1.52-6.2,4.37-11.64,2.84-19.9C2684,1193.8,2682.36,1187.67,2671.46,1187.46ZM1564.4,1251.43c3.01,3.44,2.49,8.58,4.97,12.79,4.84,8.22,15.14,14.31,25.58,17.06,8.86,2.32,15.17-4.09,21.32-4.98,2.57-.37,6.22.92,9.24-0.71,2.38-1.29,3.95-4.82,6.39-4.26,5.5,5.31,14.31,12.12,27,7.81,2.85-.96,13.61-10.7,14.92-9.24a9.482,9.482,0,0,1,2.85,4.27h-0.71c-6.02,5.54-16.08,7.26-24.16,10.66-42.34,17.79-102.09,15.38-142.12-2.13-9.11-3.99-21.34-8.19-27-15.64,1.74-.93,6.25-6.05,6.4-5.68,6.3,6.03,11.97,12.59,20.6,16.34C1535.56,1288.95,1555.52,1266.75,1564.4,1251.43Z"/>
</svg>